<?xml version="1.0" encoding="UTF-8"?>
<svg id="Layer_1" data-name="Layer 1" xmlns="http://www.w3.org/2000/svg" viewBox="0 0 804.51 841.89">
  <defs>
    <style>
      .cls-1 {
        fill: #2b773b;
      }

      .cls-2 {
        fill: #317d3d;
      }

      .cls-3 {
        fill: #2a7139;
      }

      .cls-4 {
        fill: #2f7f3e;
      }

      .cls-5 {
        fill: #337e3e;
      }

      .cls-6 {
        fill: #317e3e;
      }

      .cls-7 {
        fill: #317c3d;
      }

      .cls-8 {
        fill: #2b7339;
      }

      .cls-9 {
        fill: #337e3d;
      }

      .cls-10 {
        fill: #2b7a3c;
      }

      .cls-11 {
        fill: #307e3e;
      }

      .cls-12 {
        fill: #327e3d;
      }

      .cls-13 {
        fill: #317e3d;
      }

      .cls-14 {
        fill: #33803e;
      }

      .cls-15 {
        fill: #337d3d;
      }

      .cls-16 {
        fill: #307c3d;
      }

      .cls-17 {
        fill: #2c793c;
      }

      .cls-18 {
        fill: #337f3e;
      }

      .cls-19 {
        fill: #040202;
      }

      .cls-20 {
        fill: #307d3d;
      }

      .cls-21 {
        fill: #327e3e;
      }

      .cls-22 {
        fill: #2d773b;
      }

      .cls-23 {
        fill: #29753a;
      }

      .cls-24 {
        fill: #2c7d3d;
      }

      .cls-25 {
        fill: #277d3e;
      }

      .cls-26 {
        fill: #2d7a3c;
      }

      .cls-27 {
        fill: #32803e;
      }

      .cls-28 {
        fill: #2f813f;
      }

      .cls-29 {
        fill: #24753b;
      }

      .cls-30 {
        fill: #2c7b3d;
      }

      .cls-31 {
        fill: #2e7a3c;
      }

      .cls-32 {
        fill: #2e7c3d;
      }

      .cls-33 {
        fill: #26763b;
      }

      .cls-34 {
        fill: #327f3e;
      }

      .cls-35 {
        fill: #347f3e;
      }
    </style>
  </defs>
  <polygon class="cls-19" points="43.73 512.91 53.84 512.91 53.84 561.9 43.73 561.9 43.73 540.91 25.07 540.91 25.07 561.9 15.73 561.9 15.73 512.91 25.07 512.91 25.07 532.35 43.73 532.35 43.73 512.91"/>
  <path class="cls-19" d="M94.15,556.19c-.46-1.35-2.58-1.09-2.99-3.22-2.2-11.37,6.25-27.72-12.79-28.43-2.63-.1-12.06.98-13.96,2.28-1.13.77-.14,5.54-.45,7.08,6.11-.44,18.55-4.16,17.88,5.45-10.16-.46-22.57,1.26-20.93,14.32,1.07,8.62,9.03,10.1,16.46,8.82,2.16-.37,5.32-2.78,5.63-2.78.38,0,2.23,2.38,4.05,2.81,5.32,1.25,9.19-.25,7.1-6.33ZM81.75,554.04c-1.13,1.33-9.46,1.9-11-1.69-2.46-5.72,7.21-6.71,11.09-6.01-.3,1.51.47,7.05-.09,7.7Z"/>
  <rect class="cls-19" x="92.71" y="753.21" width="7.8" height="8.58"/>
  <rect class="cls-19" x="105.15" y="753.21" width="7.81" height="8.58"/>
  <path class="cls-19" d="M102.06,554.51c0-2.82.73-19.88,0-20.61-.29-.29-4.37.3-4.67,0-.31-.3-.31-8.26,0-8.56s4.37.31,4.68,0c.5-.5-.74-9.95.44-10.13h8.89s0,10.13,0,10.13h8.56s0,8.55,0,8.55h-8.56v17.49c0,3.92,8.96,2.34,9.34,2.72.28.27.16,7.4-.08,7.69-.99,1.16-10.4,1.01-12.38.49-3.12-.81-6.2-4.71-6.2-7.8Z"/>
  <path class="cls-19" d="M129.21,722.57c5.69,13.86-3.17,23.05-16.76,24.32-25.7,2.43-44.11-2.04-36.84-32.56l9.34.78c-1.5,11.29-3.04,21.88,11.28,23.32,6.87.69,23.36,1.79,24.46-7.45,1.39-11.62-19.81-5.69-21.7-17.87-3.11-19.99,15.76-21.7,30.29-16.66l-.79,7.76c-5.66-1.54-23.4-4.48-20.07,6.46,1.46,4.83,17,2.69,20.79,11.9Z"/>
  <path class="cls-19" d="M148.72,561.9v-22.94c0-.23-1.63-3.93-1.95-4.27-2.49-2.64-10.49-1.07-10.49,1.16v26.05h-9.33v-51.33h9.33v17.11c5.72-2.6,13.11-5.49,18.32-.04.83.88,3.46,5.84,3.46,6.65v27.61h-9.34Z"/>
  <path class="cls-19" d="M197.55,555.06c-.3-.51-2.28-.53-2.81-2.24-2.58-8.31,5.12-23.96-7.49-27.51-3.18-.89-18.33-.52-19.77,1.7-.63.96.22,5.31-.1,6.9,6.11.1,19.76-4.78,17.89,5.45-9.15-.19-21.26.55-20.79,12.62.37,9.49,7.93,12.01,16.33,10.52,1.86-.33,4.35-2.16,5.64-2.12,1.35.04,2.48,1.78,4.04,2.14,2.25.53,4.91-.01,7.23.16-.37-1.86.6-6.32-.17-7.63ZM185.19,554.04c-.92,1.07-11.27,2.93-10.88-3.42.3-5,7.25-4.4,10.96-5.05-.31,1.58.49,7.81-.07,8.47Z"/>
  <rect class="cls-19" x="203.94" y="511.35" width="10.11" height="50.55"/>
  <path class="cls-19" d="M218.71,694.12c1.75,11.79,3.36,23.86,1.55,35.76-6.13-.18-12.13,1.13-18.22-.04-2.01-.39-5.16-2.84-5.49-2.84-.51,0-5.72,3.34-9.34,3.65-4.16.35-9.28-.65-13.96-.73-6.36-.11-12.74,0-19.09-.04.14,11.7-5.37,19.24-17.88,17.11.23-1.39-.31-8.26,0-8.56.22-.2,3.86.39,5.77-.85.9-.58,2.79-4.27,2.79-4.98v-38.5h9.34v27.22h17.11v-23.33h9.34v22.17c0,1.47,6.92,2.17,8.93-.4.33-.43,1.96-4.03,1.96-4.26v-17.5h9.33v18.28c0,.43-1.2,1.43-.72,2.97.84,2.66,10.27,2.78,11.26,1.35,2.01-2.88-1.22-20-1.25-24.41.35-1.51,6.93-1.25,8.59-2.08Z"/>
  <path class="cls-19" d="M228.84,716.27c.54,5.43,5.13,13.61,11.26,13.61h12.06c.87,11.55-10.2,8.65-17.89,7.78v8.55c9.14.87,18.42,3.19,24.45-5.49.9-1.31,3.55-6.89,3.55-8.12v-37.72c-18.6-3.96-35.76-2.05-33.43,21.38ZM252.94,721.33c-8,.35-14.86,1.24-14.84-8.94.01-8.9,5.33-11.58,13.58-10.55.34.09,1.26,2.56,1.26,2.77v16.72Z"/>
  <path class="cls-19" d="M253.71,593.01v14.78h16.33v3.89h-16.33v16.33h-4.66v-38.88c3.07.66,23.27-.87,24.11,0,.43.45-.18,3.89-1.16,3.89h-18.28Z"/>
  <path class="cls-19" d="M266.24,513.37c-6.15-1.04-12.49-1.99-18.64-.36l-11.78,48.89h10.89l2.03-9.38,17.38.08,1.59,9.3h10.88l-12.35-48.53ZM250.6,544.01l4.68-22.8c.6-1.3,2.97-.69,3.72.79,2.41,4.7,3.31,16.46,4.82,22.01h-13.23Z"/>
  <path class="cls-19" d="M301.18,611.26c-.76-9.94-6.92-13.6-16.56-11.84-11.16,2.03-11.18,26.24-.6,29,13.24,3.45,18.06-5.38,17.16-17.17ZM293.66,624.01c-13.89,8.87-17.79-19.4-6.7-21.51,12.23-2.32,12.8,17.62,6.7,21.51Z"/>
  <rect class="cls-19" x="308.15" y="769.55" width="4.67" height="4.68"/>
  <path class="cls-19" d="M313.6,561.9h-28.78v-49h9.34v39.28c0,.08,1.08,1.16,1.16,1.16h18.28v8.55Z"/>
  <rect class="cls-19" x="316.7" y="769.55" width="4.67" height="4.68"/>
  <path class="cls-19" d="M312.04,628.01h-3.89v-28.77h3.9s.39,3.9.39,3.9c3.32-1.7,6.5-4.15,10.49-3.9,3.02,5.99-10.89,5.25-10.89,8.94v19.83Z"/>
  <path class="cls-19" d="M324.49,730.67l-54.44-.78v-8.56h21c.66-12.68-3.69-21.62-17.89-19.44.33-1.59-.53-5.91.1-6.9,1.61-2.51,14.11-1.5,17.31-.02,9.77,4.54,9.72,17.3,10.58,26.36h14v-42.77h9.34v52.11Z"/>
  <path class="cls-19" d="M327.59,780.44c-10.05.06-25.59-3.84-27.22,10.49-.99,8.72.36,16.85,10.5,18.28,4.82.68,10.96-.5,15.94,0v-26.83c0-.24,1.07-1.1.78-1.94ZM322.93,805.33c-4.34-.25-10.66.77-14.57-1.37-5.78-3.16-3.85-19.62,1.74-19.62h12.83v20.99Z"/>
  <rect class="cls-19" x="335.33" y="678.55" width="10.15" height="52.15"/>
  <path class="cls-19" d="M354.72,521.17c-1.76-3.54-7.22-8.26-11.18-8.26h-24.5v49h24.5c.38,0,6.19-2.72,6.88-3.22,8.36-6.13,8.51-29.05,4.3-37.51ZM329.15,553.35v-31.89h11.28c3.52,0,5.98,6.16,6.4,9.15,2.06,14.37-.51,25.75-17.68,22.74Z"/>
  <path class="cls-19" d="M363.37,628.01h-21.78v-39.66c1.98-.04,4.46-.53,4.71,1.96l-.82,33.81h17.89v3.89Z"/>
  <path class="cls-19" d="M359.1,164.49c-13.46,0-37.58,15.54-50.41,21.13-4.32,1.89-19.95,8.37-23.74,5.96-.18-.11-1.04-2.66-2.04-3.78-1.61-1.83-3.82-4.21-6.28-4.6-12.31-1.98-20.61,9.27-14.51,19.95.78,1.37,3.81,3.94,3.84,4.49.04.46-1.26,2.31-1.4,3.9-.17,2.1,1,4.93.72,6.08-.51,2.07-7.89,4.13-6.87,10.98.16,1.03,1.41,1.94,1.22,2.81-.43,1.85-4.12,3.19-5.51,6.17-2.33,5,.6,5.96.1,7.8-.49,1.81-5.36,4.29-6.39,8.55-.68,2.8,2.4,4.77.51,7.26-1.02,1.35-3.59.51-5.33,4.95-1.86,4.75.81,5.44.32,7.24-.77,2.87-7.46,4.22-6.8,11.3.16,1.78,2.25.48,1.34,2.75-1.08,2.69-3.82,1.84-5.53,5.38-2.08,4.33.16,7.63-.89,9.93-.62,1.35-2.31,1-3.43,2.08-4.21,4.07-.77,9.19-2.02,11.91-.62,1.34-3.16,1.04-4.76,3.87-2.9,5.16.54,7.49-.69,10.14-.6,1.31-3.09,1.14-4.52,3.32-2.18,3.32.58,5.53-5.09,4.64,1.32,16.26,14.26,30.85,28.5,38,35.7,17.94,87.42,4.55,95.93-38-6.05,1.06-4.19-1.39-6.65-4.63-1.28-1.68-4.29-2.91-4.67-4.64-.25-1.14,1.09-2.34,1.22-3.63.6-5.95-6.13-7.93-6.67-10.39-.16-.73,1.43-2.16,1.07-4.89-.71-5.58-5.89-6.64-6.57-9.14-.49-1.85,2.65-3.18-.13-8.34-1.66-3.09-4.46-3.02-5.08-4.31-1.31-2.74,1.33-3.42.93-6.22-.81-5.66-5.72-6.21-6.37-7.81-.87-2.11,1.75-4.01.06-8.53-1.61-4.32-4.72-3.67-5.5-5.46-1.24-2.85,1.13-3.28.93-5.43-.07-.87-1.61-4.99-2.18-5.68-1.19-1.46-3.55-1.34-4.21-2.9-.87-2.07.43-4.14.32-6.37-.33-6.6-5.55-5.95-6.19-7.93-.68-2.07,1.31-3.07,1.48-4.58.67-5.8-6.46-8.49-6.89-10.21-.28-1.17.78-3.01.75-4.53-.04-1.78-1.15-3.72-.74-5.27,1.47-5.53,11.21-4.6,15.61-5.44,3.6-.69,7.18-1.57,10.72-2.51,22.54-5.99,45.04-22.58,69.22-12.05v-23.33h-16.72ZM274.71,257.82c-1.5-.78-2.38-.78-3.88,0v-6.22c1.02,1.8,3.75.61,3.88.78.31.38-.2,4.34,0,5.45ZM274.7,316.14c-.15.2-2.12-2.63-3.87,0v-6.99c1.34,2.11,3.75.6,3.88.77.36.47-.24,5,0,6.22ZM271.57,295.21c.4.31-.74,3.25,3.13-.06v6.22s-3.87,0-3.87,0c.67-1.66-1.74-8.12.74-6.16ZM270.83,286.59c-.31-.38.2-4.34,0-5.45,1.5.78,2.38.78,3.88,0v6.22c-1.02-1.8-3.75-.61-3.88-.78ZM270.83,272.59v-6.99c1.32-.34.48,1.13.85,1.44,1.4,1.16,3.99-4.12,3.02,5.55-.15.19-2.12-2.63-3.87,0ZM270.83,243.05c-.31-.38.2-4.35,0-5.45,1.5.78,2.38.78,3.88,0v6.22c-1.02-1.8-3.75-.6-3.88-.77ZM273.48,228.19c-.89-.07-2.49,1.05-2.65.85v-6.22c1.5.78,2.38.78,3.88,0v6.99c-1.34.36-.34-1.56-1.23-1.63ZM266.94,208.82c.25-.22,2.81.61,2.98.9.61.99.38,5.02-1.42,5.32l-.41-2.35c-3.51,2.16-1.23-1.36-1.15-3.87ZM262.26,222.39c.67-.48,2.28,1.96,3.89.43.4.47-1.72,5.83-2.72,6.22-.22.09-.31-3.01-3.49-.78-.57-.68,1.49-5.28,2.31-5.87ZM256.82,236.4c.7-.47,2.25,1.95,3.89.42.4.46-1.72,5.83-2.72,6.22-.22.08-.32-3.02-3.49-.78-.37-.43,1.55-5.34,2.32-5.86ZM254.45,251.64c.32,2.01-.38,4.07-1.91,5.4-.72-2.43-1.41-1.6-3.49-.78.81-3.34,1.6-6.25,5.4-4.63ZM245.94,264.04l3.88,1.57-2.72,5.43c-.72-2.43-1.42-1.59-3.49-.78l2.34-6.22ZM240.5,277.27c1.49-.25.31,1.58.89,2.23.4.44,2.02-.07,2.21.1.78.71-1.64,4.34-1.56,5.44l-3.88-1.56,2.34-6.21ZM235.82,291.26v2.34c4.64-2.31,1.13,2.58.78,5.43-1.29-2.12-3.73-.61-3.87-.78-.62-.75,2.44-7.83,3.1-7ZM230.35,306.07c.07.05-.27.81.66,1.49.39.28,1.54-.11,1.7.04.49.43-1.68,4.29-1.56,5.43-2.13.33-1.39-2.34-3.88-1.55.43-1.17,1.46-6.7,3.08-5.41ZM216.38,338.69l1.57-4.65c1.27-.34.46,1.1.9,1.37.85.51,2.03.13,2.99.19-.81,4.01-1.59,3.23-5.45,3.09ZM221.83,325.47c-.54-.47,2.4-7.16,3.1-6.22.07.67-.26,1.79.13,2.24.32.36,1.6.07,2.21.1-.49.93-1.37,5.24-1.56,5.45-1.16,1.25-1.64-1.27-2.18-1.53-.52-.25-1.55.1-1.7-.04ZM272.41,335.85c-.02.23-2.95,2.75-3.51,2.86l-46.3-.02c2.16-2.62-1.05-4.91-.48-7.01.81-2.95,5.75-2.34,6.55-8.35.37-2.83-1.29-4.59-1.06-5.69.57-2.7,6.34-2.69,6.72-8.9.13-2.23-1.23-4.28-.34-6.4.63-1.49,2.58-1.31,3.75-2.57,3.84-4.1.31-8.17,1.71-11.45.62-1.46,2.62-1.4,3.79-2.49,4.1-3.8.3-8.57,1.64-11.5.57-1.23,3.23-1.26,4.83-3.81,3.25-5.2-.1-6.99.4-8.84.63-2.35,5.07-3.23,6.2-7.93.81-3.34-.54-2.99-.9-5.07-.66-3.82,3.07-3.02,4.85-5.72,3.5-5.31.13-7.08.75-9.28.75-2.7,6.52-3.75,6.49-9.85,0-1.13-2.9-8.08,2.04-7.09,4.57.93.01,5.07-.26,6.47-.54,2.72-.04,5.46,1.07,7.88.13.28,1.53-.08,1.32,2.19-.28,3.15-3.27,3.57-2.45,9.4.37,2.63,2.63,3.31,2.42,5.37-.21,2.05-2.71,2.28-2.41,7.84.22,4.23,1.82,3.68,2.15,4.43,1.45,3.31-1.46,4.13-1.96,5.81-1.84,6.12,2.4,8.08,2.26,11.52-.04,1.03-3.25,2.76-2.46,8.59.36,2.63,2.64,3.29,2.43,5.36-.16,1.55-1.87,2.13-2.22,3.31-.43,1.38-.46,6.93.25,8.02.48.74,1.87.22,2.02,1.93.26,3.03-3.3,4.4-2.46,10.16.4,2.8,2.58,3.02,2.46,6.19-.06,1.47-1.65,1.02-2.08,2.62-.51,1.87-.77,6.25.08,7.87.42.8,3.1,1.01,2.72,4.15ZM270.83,330.15c-.34-.41.22-5.03,0-6.23,1.02,1.8,3.75.61,3.88.78.34.41-.22,5.03,0,6.22-1.01-1.8-3.74-.6-3.87-.77ZM322.15,338.7h-46.66c-.27-.16-1.72-4.15-1.66-5.05.1-1.71,1.91-1.24,2.31-2.43.36-1.06.34-4.93.1-6.12-.37-1.9-2.41-2.34-2.4-4.68,0-2.14,1.77-2.87,2.48-4.6,2.48-6.08-1.98-6.42-2.43-9.44-.44-2.99,1.72-3.2,2.2-4.78,1.73-5.67-2.5-8.19-2.27-11.52.13-1.72,1.91-1.23,2.31-2.42.35-1.01.32-4.22.16-5.4-.37-2.66-2.46-3.12-2.46-5.4,0-2.57,3.28-3.6,2.46-9.38-.36-2.54-1.71-2.58-2.21-4.01-1.38-3.88,1.6-3.28,2.05-4.59,1.86-5.44-2.46-9.43-2.26-11.54.2-2.1,3.25-2.84,2.42-8.64-.4-2.82-2.69-3.16-2.46-6.18.13-1.77,2.06-1.03,2.44-3.08.23-1.23.21-5-.03-6.24-.25-1.31-5.28-6.44-.34-5.88,5.48.63,1.87,4.07,1.93,6.57.16,5.72,6.12,7.43,6.65,9.76.27,1.16-2.68,4.04.17,9.14,1.49,2.68,4.36,2.6,4.78,3.84.68,2.02-1.99,5.42.66,10.17,1.54,2.75,2.92,1.96,4.43,3.37,2.06,1.92-.43,3.49-.36,5.72.02.72,1.31,4.75,1.69,5.37,1.23,2.03,4.32,1.81,5.01,4.41.45,1.69-1.86,2.55-.91,6.25,1.26,4.94,5.77,5.66,6.34,7.74.6,2.16-2.28,3.06-.08,7.8,1.43,3.07,4.97,4.16,5.53,6.19.49,1.78-1.14,2.72-1.19,4.28-.02.93,1.45,4.8,2.02,5.65,1.2,1.81,3.72,1.66,4.57,3.33.85,1.65-2.02,7.58,2.12,11.43.7.65,1.92.55,2.65,1.22,2.96,2.67-.9,5.39.24,9.11ZM327.59,334.03c.16.18.48,3.8,1.57,4.66-3.93.33-5.49.56-5.44-3.88,1.98,2.45,2.76-2,3.87-.78ZM321.38,320.37c.79.51,2.88,5.22,2.31,5.89l-2.32-.78-.78,1.96-2.32-6.61c1.02,1.1,2.4-.92,3.11-.45ZM315.54,306.04c1,.43,3.35,5.49,2.72,6.22-1.74-1.31-3.3.76-3.49.76-.57,0-3.04-5.84-2.72-6.2,2.08.82,2.78,1.65,3.49-.78ZM311.26,292.8c.21.19,1.75,5.25,1.56,5.45-.23.25-1.37-.55-1.95-.43-.85.19-1.57,1.47-1.93,1.21-.27-.19-2.04-5.23-2.34-6.22,1.16,1.34,4.46-.18,4.65,0ZM303.81,279.67c.9-.07-.1-1.98,1.22-1.63-.24,1.41,3.02,5.49,2.34,6.22-.25.27-1.42-.54-1.95-.72-1.09.07-.01,4.15-1.92,2.27-.27-.26-2.72-6.55-2.34-6.99.9.16,1.69.93,2.65.85ZM298.37,265.67c.9-.07-.1-1.98,1.22-1.62l2.34,6.21c-1.46-1.19-3.37.81-3.89.43-.76-.53-2.69-5.45-2.32-5.87.9.17,1.68.93,2.65.85ZM292.92,251.67c.9-.07-.11-1.99,1.22-1.63l2.34,6.21c-3.11-1.41-2,.43-3.88,1.55l-2.33-6.99c.16-.18,1.73.93,2.65.86ZM288.7,236.05l2.34,6.21c-1.44-1.17-3.4.81-3.9.45-1.14-.84-2.08-4.52-3.1-5.88,2.23.76,2.87.77,4.66-.78ZM283.25,222.04c1.16,3.88,3.19,4.68-1.16,6.99l-2.71-6.99c1.9,2.69,3.52-.24,3.87,0Z"/>
  <path class="cls-19" d="M376.63,783.13c-4-3.85-14.52-4.82-19.01-1.84-4.68,3.12-2.33,17.29-2.34,22.44,0,.65-.28,1.59-.85,1.59h-12.44c-.85,0-1.11-1.9-1.2-2.68-1.28-10.93,1.65-23.2.81-34.26-.24-2.52-2.72-1.96-4.66-1.94v42.77h42.77v-20.61c0-.94-2.16-4.6-3.07-5.48ZM374.65,805.33c-2.96,0-11.14.6-13.22,0-3.91-1.13-3.22-17.04-1.22-19.88,2.54-3.59,12.46-1.94,14.25,2.19,1.05,2.44,2.58,17.69.19,17.69Z"/>
  <path class="cls-19" d="M389.28,624.67c-4.46-6.5,4.96-23.9-8.42-25.44-3.46-.4-14.4-.69-12.82,4.66,7.51-1.47,17.91-4.7,16.33,7.01-9.17.6-20.65-.24-17.73,12.67,1.17,5.18,7.36,5.62,11.69,5.01,1.97-.28,4.8-1.93,5.78-1.98,1.37-.08,4.59,3.47,7.25,2.18.96-3.14-1.45-3.19-2.08-4.11ZM384.38,622.18c-.62,3.21-14.44,6.93-14.06-2.32.27-6.58,9.31-5.69,14.05-5.86-.33,2.52.46,5.82,0,8.18Z"/>
  <path class="cls-19" d="M395.08,555.07c-.31-.5-1.8-.19-2.17-2.08-2.19-11.19,5.95-27.16-12.01-28.44-2.34-.16-14.94,1.03-15.87,2.46-.63.97.22,5.31-.1,6.9,6.31.16,20.15-4.9,18.67,5.44-10.65-.17-22.69.32-20.93,14.32,1.01,8.03,7.22,9.66,14.35,9.04,3.01-.26,6.35-2.5,7.69-2.39,1.93.16,6.58,4.22,10.56,2.37-.37-1.85.61-6.34-.19-7.62ZM380.04,554.85c-10.78,1.7-11.62-8.08.29-9.09,5.11-.43,4.87,8.28-.29,9.09Z"/>
  <path class="cls-19" d="M371.22,733.32c-1.06-7.77.33-16.14,1.93-23.68l8.9.03c-.26,6.6-2.52,13.97-1.51,20.56,1.9,12.3,20.95,9.18,20.95,1.6v-53.27h10.11v53.27c0,.31-1.61,5.11-1.94,5.84-6.66,14.84-36.13,12.52-38.43-4.35Z"/>
  <path class="cls-19" d="M405.37,71.56c3.87.8,8.46-5.26,9.25.83.9,7.02-.85,5.21-5.36,9.28l6.22-1.16c-.81,2.63,1.31,6.64.82,8.78-.17.77-4.85,2.56-5.48,4.05l5.43-1.16c-.51,4.58,1.98,9.81-3.1,12.05.21.93,2.19-.22,2.39.81.94,4.87-2.07,12.99-1.61,18.24-3.07-.67-23.29.88-24.11,0-.22-.23-.57-5.94-.43-6.22.98-1.94,7.01-3.8,8.21-6.22l-8.18,3.1c-1.1.36-1.6-7.63-.78-9.33.77-1.57,5-2.88,5.84-4.65l-6.99,1.54c.3-2.41-.54-5.8.14-8.02.63-2.04,5.08-3.29,6.07-5.19l-6.21,1.54c1.31-3.9-1.04-10.87,3.87-11.67.28-1.58-2.17-.1-2.37-1.19-.84-4.49,2.22-11.72,1.58-16.24-.69-4.84-9.24-10.25-9.3-12.48-.11-4.08,16.36-16.04,20.6-16.04s20.07,11.37,20.45,15.36c.28,2.92-6.9,7.28-8.32,10.84-1.17,2.95-.34,6.57-1.25,8.08-.97,1.62-6.14,2.93-7.38,5.07Z"/>
  <path class="cls-19" d="M396.78,245.79c1.1,45.03,2.87,90.22,3.96,135.26.41,17.03-.4,34.03,1.13,50.98l6.57-267.97c.57-4.46,10.72-10.81,14.82-12.79v271.03c0,2.37-1.84,8.75-2.56,11.45-3.9,14.8-11.92,28.15-18.45,41.82-.59.4-6.49-10.67-7.13-11.91-4.3-8.4-14.64-31.13-14.64-39.8V151.27c.7-.95,12.99,8.62,14.05,10.46.72,1.27,1.43,11.46,1.54,14.01,1.02,22.93.15,46.96.71,70.06Z"/>
  <rect class="cls-19" x="422.47" y="678.55" width="10.15" height="52.15"/>
  <path class="cls-19" d="M434.14,600.02l-6.25,27.96c-1.71-.63-5.75.78-6.62.61-1.4-.27-5.61-19.54-6.96-22.36-1.53,2.69-4.92,20.84-5.91,21.7-.37.31-6.22.25-6.96-.26-1.13-.79-6.61-23.87-6.93-26.54-.27-2.22,3.54-.75,4.63-1.11l5.45,23.73c1.36.63,1.45-1.45,1.68-2.22,1.34-4.48,3.89-18.04,6.02-21.05.65-.92,3.19-.64,4.01-.1,1.33.87,5.3,18.35,6.45,21.58.33.95.14,2.64,1.68,2.17,1.17-.36,4.18-23.2,5.1-24.08.37-.36,3.61.15,4.63-.03Z"/>
  <path class="cls-19" d="M444.99,561.87l-14.64-.07c-1.6-6.25-2.77-12.64-3.98-18.98-.18-.98.65-3.32-1.17-2.69-1.04.36-3.21,19.05-4.32,21.74h-14.7l-7.03-36.51c1.95.41,8.03-.63,9.22.1,1.29.81,3.53,26.58,4.78,27.89s1.32-.28,1.57-1.13c2.4-8.14,3.43-17.71,5.45-26.05,2.23.32,8.69-.74,10.13.31,1.16.84,4.3,21.43,5.36,24.97.31,1.04.07,2.41,1.58,2.69,2.6-4.98,2.71-24.93,5.05-28.01,1.24-1.64,7.5-.39,9.74-.76l-7.04,36.51Z"/>
  <rect class="cls-19" x="447.35" y="676.21" width="9.36" height="9.36"/>
  <path class="cls-19" d="M359.48,139.6c.75,7.02-4.96,12.98-12.05,12.46-14.34-1.05-14.65-22.49,1.55-24.12,33.93,1.9,70.65-2.56,104.24-.04,8.91.67,14.67,4.75,13.59,14.44-1.17,10.59-15.65,13.1-21.37,4.22-1.1-1.72-1.81-5.9-2.05-6.11-2.37-2.04-20.71,4.75-24.07,6.49-7.28,3.77-12.98,9.13-17.46,15.96-9.22-14.55-25.85-21.11-42.38-23.32Z"/>
  <polygon class="cls-19" points="458.25 593.01 458.25 607.79 473.81 607.79 473.81 611.68 458.25 611.68 458.25 628.01 453.59 628.01 453.59 589.12 476.92 589.12 476.92 593.01 458.25 593.01"/>
  <path class="cls-19" d="M474.97,562.69c-2.55.28-17.01-.25-18.2-1.63-.54-.63.22-6.21-.08-7.71,4.9-.47,13.77,3.09,17.84.34,6.95-4.69-8.61-6.16-10.81-6.97-11.85-4.31-8.26-20.42,4.32-22.08,2.6-.34,15.36.51,16.55,2.38.49.76.34,5.87-.62,6.55-2.07,1.45-19.31-3.49-17.91,3.01.64,2.98,17.5,1.72,19.23,11.13,1.4,7.6-2.4,14.09-10.31,14.99Z"/>
  <rect class="cls-19" x="482.36" y="600.01" width="4.66" height="27.99"/>
  <rect class="cls-19" x="482.35" y="588.34" width="4.68" height="4.68"/>
  <path class="cls-19" d="M497.91,766.44c-.09,6.61.11,13.25.04,19.87-.01,1.57-.72,3-.74,4.55-.01,1.75,2.18,14.47-.46,14.47h-12.84v-38.88c-1.1-.21-4.66-.02-4.66,1.16v37.72c-2.82-.03-10.67.46-12.52-1.87-2.56-3.22,2.05-15.14-4.19-20.7-3.95-3.51-17.87-4.55-20.05.19-2.16,4.7-1.49,15.38-.72,20.62.3.63-.74,1.75-1.01,1.75h-13.61v-18.28c0-.43-2.43-4.11-3.07-4.7-2.35-2.13-6.66-2.83-9.77-2.73-1.11.03-9.34,1.28-9.67,1.64-.34.36.13,2.94-.04,3.84,19.25-5.35,20.46,3.57,17.88,20.23h-28.77v-38.88h-4.66v42.77l74.32.07c2.76-3.13,3.01-.47,6.13-.02,9.58,1.37,22.38-1.1,32.32-.04v-42.77h-3.89ZM460.97,805.33c-3.01,0-11.05.61-13.22,0-.77-.22-1.75-1.83-1.93-2.74-.45-2.35-.36-12.22.03-14.71,1.11-7.1,13.54-4.74,15.16.3.7,2.19,2.3,17.15-.04,17.15Z"/>
  <path class="cls-19" d="M499.47,599.23c-1.07,7.56,3.23,1.45,6.98.37,1.04-.3,2.03-.51,3.13-.37.77,6.62-.78,3.81-5.1,5.39-.6.22-5,2.11-5,2.39v20.99h-3.9s-.66-27.49-.66-27.49c.59-1.8,3.05-1.25,4.56-1.28Z"/>
  <path class="cls-19" d="M522.62,555.07c-.31-.5-1.8-.19-2.16-2.08-2.19-11.18,6.16-27.73-12.78-28.44-2.06-.08-13.53,1.25-14.32,2.47-.63.97.22,5.31-.1,6.9,3.23-.45,15.55-2.06,17.17.51.72,1.15,1.72,4.61-.43,4.93-6.69.99-17.52-.92-19.51,8.5-2.35,11.09,4.81,16.52,15.41,14.64,1.9-.34,4.18-2.1,5.63-2.1,2.37,0,7.55,3.89,11.28,2.28-.37-1.85.62-6.34-.19-7.62ZM506.88,554.92c-3.09.37-7.23.58-7.31-3.49-.13-6.46,7.24-4.69,11.57-5.85-.29,4.87,1.89,8.61-4.25,9.34Z"/>
  <path class="cls-19" d="M529.84,719.36c-.4-12.35-2.13-27.01-16.33-30.34-5.01-1.17-11.48-.98-16.57-.15-1.63.26-8.17,1.83-9.17,2.54-.95.68.51,7.29,2.69,7.35,3.85.09,9.1-2.7,14.87-2.34,14,.89,15.2,13.54,15.14,24.92-1.31-.25-6.55.36-6.97-.04-1.27-1.24.75-11.27-6.83-15.34-11.22-6.02-22.62,3.28-21.2,15.38h-13.22c1.72-18.82-7.52-33.25-28-26.44l.78,6.99c14.2-1.96,18.57,6.64,17.89,19.44h-21.78v8.56l87.93.43c1.17-.82.83-8.95.77-10.97ZM504.14,721.33c-4.72-.51-9.81,2.35-9.41-4.28.49-7.82,12.02-4.31,9.41,4.28Z"/>
  <path class="cls-19" d="M539.52,530.01c1.06-1.75,10.44-6.31,11.28-5.43-.4,2.24.74,7.72-.36,9.36-1.16,1.75-9.49,2.02-11.31,4.25v23.72h-9.33v-36.56c1.47.25,9-.33,9.34,0,.46.46-.67,3.92.38,4.66Z"/>
  <path class="cls-19" d="M554.69,628.01h-3.89c-.81-.78.1-19.91-1.16-22.55-1.6-3.37-11.42-2.72-12.7-.64-1.33,2.16.56,19.39.65,23.2h-4.67v-21.39c0-1.71-4.22-4.1-5.9-4.27-1.9-.19-7.31,1.81-7.31,3.49v22.16h-4.66v-27.99c3.74-1.45,4.74,1.61,5.04,1.56,2.93-.51,4.19-2.9,9.36-2.36,2.67.28,5.69,2.87,6.2,2.87,1.98,0,5.84-3.69,11.63-2.8,3.72.57,7.43,4.39,7.43,8.11v20.61Z"/>
  <rect class="cls-19" x="575.67" y="736.87" width="9.36" height="8.58"/>
  <path class="cls-19" d="M564.81,577.46l3.87-15.55c-1.29-.28-5.55.43-6.14-.08-1.42-1.22-7.25-32.12-8.63-36.47l9.3.03c2.24,8.33,3.43,18.05,6.15,26.12.34,1.02.22,2.37,1.65,2.62,1.16-3.49,5.96-27.73,7.08-28.7.66-.57,7.61.24,9.26-.07l-13.23,52.11c-3.07-.83-6.31-1.48-9.31,0Z"/>
  <path class="cls-19" d="M586.95,333.27c-1.34-1.55-3.16-1.23-3.77-2.54-1.25-2.72,2.2-7.84-2.01-11.92-1.12-1.07-2.81-.73-3.43-2.08-.97-2.12,1.04-6.42-1.1-10.49-1.11-2.13-2.72-1.81-4.03-2.96-3.1-2.71.02-3.75-.04-6.09-.02-.94-1.51-4.87-2.08-5.72-1.2-1.8-4.37-1.9-4.85-3.85-.44-1.81,2.49-2.49.54-7.46-1.67-4.27-4.9-4.01-5.55-5.42-.94-2.07,1.77-3.54-.14-8.34-1.69-4.26-5.33-4.72-5.74-5.98-.67-2.09,1.35-3.08,1.44-4.52.07-1.32-1.9-6.14-3-7.11-1.49-1.28-4.19-.85-3.9-3.81.11-1.13,1.16-1.78,1.34-2.53.34-1.46-1.81-6.57-2.91-7.63-1.32-1.28-3.11-.57-3.62-2.63-.63-2.51,1.1-2.79,1.2-4.29.04-.63-1.28-4.58-1.68-5.29-1.41-2.52-4.72-2.69-5.19-4.19-.46-1.46.96-3.87.69-6.02-.23-1.91-2.53-3.84-2.32-4.69.09-.37,2.47-1.84,3.31-2.96,7.58-10.23.43-23.14-12.28-21.6-6.14.74-8.93,8.93-10.15,9.21-.69.16-8.24-1.43-9.67-1.81-20.65-5.45-40.81-23.6-62.6-26.05-4.79-.54-11.29,0-16.33,0-.08,0-1.16,1.08-1.16,1.16v21.38c23.71-8.9,44.89,5.79,66.89,12.05,4.53,1.3,9.21,2.34,13.83,3.28,3.88.78,13.86.34,14.82,5.4.17.88-1.38,2.81-1.5,4.57-.13,2.04,1.21,4.69.76,6.07-.47,1.47-5.32,2.81-5.99,8.13-.39,3.07,1.47,4.37,1.34,5.14-.21,1.28-7.39,4.13-6.93,10.16.14,1.8,2.02,2.73,1.04,4.9-.6,1.33-2.96,1.08-4.48,3.38-.51.77-1.96,4.23-2.02,5.07-.21,2.37,2.04,3.77.79,5.93-.79,1.37-3.39.98-5.06,4.48-2.28,4.81.41,6.18.05,7.85-.48,2.21-5.81,3.61-6.52,9.08-.34,2.72,1.25,4.16,1.08,4.9-.52,2.34-6.55,4.08-6.73,9.69-.05,1.76,1.21,3.88.76,5.3-.51,1.66-5.59,1.71-6.12,8.01-.18,2.1.97,4.02.45,5.75-.79,2.63-4.41,1.9-5.55,6.19-.88,3.34.83,6.16-.09,8.37-.63,1.5-2.58,1.31-3.75,2.57-1.32,1.41-1.84,5.14-2.06,5.32-1.68,1.42-4.55-2.94-3.72,4.28.44,3.86,3.47,9.75,5.51,13.16,26.15,43.56,109.14,36.3,118.06-17.34-5.55,1.25-3.33-2.51-5.84-5.43ZM580.34,320.04c-.03,1.16,2.34,4.68,1.55,5.43-.25.25-2.76-.37-2.7,1.57-1.01-.43-3.34-5.52-2.72-6.22,3.28,2.03,1.19-1.02,3.87-.78ZM574.14,306.38c.82.6,2.9,5.19,2.32,5.87l-2.32-.78-.39,2.34-3.49-6.61c1.54.75,3.34-1.21,3.88-.81ZM568.7,292.4c.76.51,2.69,5.43,2.31,5.86-2.07-.82-2.77-1.66-3.49.78-1-.43-3.33-5.46-2.72-6.22,1.63,1.53,3.18-.88,3.89-.41ZM562.85,278.04c1.02.4,3.11,5.79,2.72,6.22-.32.34-2.13-1.05-2.32-.78l-.39,2.34c-1.24-.59-3.92-6.52-3.5-6.99,3.17,2.24,3.27-.87,3.49-.78ZM560.13,270.26c-1.44-1.18-3.4.81-3.9.44-.64-.47-2.72-4.69-2.32-5.1,4.96-1.7,4.66.71,6.22,4.66ZM552.34,250.04l2.34,6.22c-1.46-1.18-3.37.81-3.9.43-.53-.37-2.53-4.89-2.33-5.08.15-.14,3.11-.41,3.88-1.57ZM546.9,236.05l2.35,6.21-3.11-.78-.39,2.34-2.72-6.99c3.28,2.03,1.2-1.02,3.87-.78ZM539.27,223.55c.99-.69.32-1.99,2.19-1.51l2.34,6.21-3.1-.78-.39,2.34c-.83-.71-3.07-5.9-2.72-6.21.16-.15,1.28.24,1.69-.05ZM536.01,208.82c.19.15,1.73,4.48,1.57,4.66l-3.89.78c-.59-1.1.29-6.99,2.32-5.44ZM520.86,222.04c.73-.11.17,1.13.51,1.45.54.51,1.93-.97,2.2-.67l-1.56,6.22-3.88-1.56,2.73-5.43ZM515.79,236.05c.1.08-.15,1.12.14,1.39.78.71,2.1-.48,2.98-.61.43.51-1.94,6.22-2.71,6.18-.35-.01-1.68-2.29-3.5-.74-.34-.4,2.33-6.84,3.09-6.22ZM509.59,250.04c1.29,2.12,3.72.61,3.87.78.7.81-2.61,4.75-2.34,6.22-1.29-2.12-3.72-.61-3.87-.78-.7-.81,2.61-4.75,2.34-6.22ZM503.76,264.83c1.13-2.1,1.18.49,1.31.54,1,.44,1.92.25,2.95.22-.55,1.04-1.75,5.44-2.72,5.4-.35-.01-1.68-2.29-3.5-.74-.25-.29,1.57-4.71,1.96-5.43ZM498.32,278.83c1.13-2.1,1.18.49,1.31.55,1.01.44,1.92.25,2.95.22-.6.78-2.21,6.14-3.1,5.43-.3-.25.84-2.9-3.11-.78-.25-.28,1.56-4.72,1.95-5.43ZM494.02,292.04c.11.1-.15,1.13.15,1.41.54.52,2.13-.9,2.97-.63l-2.34,6.22c-1.29-2.12-3.73-.61-3.87-.78-.78-.94,2.36-6.84,3.1-6.22ZM488.58,306.04c.32.29-.88,2.64,2.33.77l-1.56,6.22c-2.13.34-1.37-2.34-3.87-1.55.38-1.13,1.54-6.8,3.1-5.43ZM474.58,338.69c.75-.81,1.37-4.51,1.57-4.66.17-.13,2.34,2.13,3.87.78-.41,4.41-1.19,4.23-5.44,3.87ZM481.66,320.84c.27-.19,2.74.96,3.81-.03.58.87-1.72,5.79-2.72,6.22.04-1.96-2.44-1.31-2.72-1.56-.21-.19,1.43-4.49,1.63-4.63ZM528.24,338.7h-47.44c2.01-2.79-.91-5.42-.49-7.01.61-2.36,5.08-2.66,6.37-7.75.76-3.01-.99-5.31-.34-7.26.51-1.52,4.41-1.54,5.61-6.11.88-3.35-.83-5.93.25-8.24.71-1.52,4.84-1.25,5.58-6.99.32-2.55-1.21-4.69-.13-7.01.61-1.31,3.62-1.16,5.32-4.84,2.2-4.75-.67-5.62-.08-7.8.72-2.68,4.51-1.96,5.96-7.35,1.07-3.97-1.02-4.84-.51-6.65.63-2.26,5.29-3.55,6.35-8.54.63-2.96-1.69-5.3-.46-7.2.96-1.48,4.69-1.16,5.91-6.81.58-2.69-2.08-4.64-.46-7.19,1.07-1.68,5.17-.81,5.5-7.21.08-1.63-1.9-7.53,1.12-7.42,6.8.25,1.31,4.39.8,5.52-2.61,5.69,2.52,8.17,2.75,10.53.28,2.81-5.15,4.46-2.58,10.27.59,1.32,2.41,2.16,2.58,3.73.27,2.71-5.33,4.78-2.58,11.05.88,2,3.63,2.54,2.15,5.62-.89,1.84-2.63,1.12-2.81,5.05-.25,5.39,3.16,5.38,3.28,7.02.28,3.68-2.96,3.72-3.27,6.99-.45,4.77,2.99,5.66,3.22,7.83.3,2.88-5.49,4.04-2.46,10.95.75,1.71,2.4,1.51,2.52,3.01.28,3.73-4.75,5.2-3.05,10.73.53,1.75,2.8,1.85,3.03,4.86.2,2.64-1.78,1.84-2.62,3.63-2.79,5.89,2.39,7.98,2.59,10.37.04.52-1.37,4.24-1.6,4.24ZM532.91,229.04c-1.14-1-3.78.18-3.88,0-.22-.37-.11-4.31-.78-5.44,4.59.04,5.13.49,4.66,5.43ZM532.91,237.6v6.22c-1.25-1.34-3.75.16-3.88,0-.21-.23-.64-5.22-.78-6.22h4.66ZM532.92,252.35v5.47s-4.68,0-4.68,0v-5.47s4.68,0,4.68,0ZM532.91,272.59h-4.66v-6.22c.87.41,4.45.65,4.61.81.4.4-.16,4.28.04,5.4ZM532.86,286.55c-.14.13-3.7.59-3.87.49-1.35-.93-.6-4.37-.75-5.88h4.66c-.2,1.1.34,5.02-.04,5.4ZM532.91,301.36c-1.16-.98-3.74.15-3.87,0-.23-.25-1.07-5.9-.79-6.22.87.42,4.45.66,4.61.82.4.4-.16,4.28.04,5.4ZM532.91,309.92c.11,4.46.96,5.98-3.87,6.22l-.79-6.22h4.66ZM529,330.58c-1.35-.93-.6-4.37-.75-5.88h4.66c-.2,1.1.34,5.03-.04,5.4-.14.14-3.7.6-3.87.49ZM581.13,338.7h-46.28c-7.13-4.25-.51-5.87-.31-10.48.22-4.95-3.22-5.78-3.28-8.58-.02-1.39,3.13-1.59,3.26-6.21.13-4.63-2.87-5.91-3.07-7.91-.13-1.47,4.74-3.55,2.84-9.82-.52-1.74-2.99-2.02-3.04-4.84-.02-1.55,1.93-1.37,2.63-2.87,2.96-6.35-2.57-8.76-2.63-11.9-.03-1.55,1.93-1.37,2.63-2.88,2.93-6.28-2.57-9.21-2.58-11.11,0-1.85,4.94-3.47,2.98-9.96-.49-1.63-4.35-3.27-2.81-5.86.46-.78,2.59-.01,3.01-3.6.78-6.63-2.99-6.99-3.19-7.94-.69-3.09,5.02-4.71,2.99-11.37-.31-1.01-1.62-1.57-2.01-2.66-1.4-3.87,2.51-5.48,3.95-2.34,1.18,2.6-1.76,8.07,2.07,11.88,1.34,1.34,5.04,1.55,4.52,4.47-.31,1.76-1.96,1.51-1.01,5.22,1.28,5.04,5.05,5.11,6.1,7.19,1.07,2.13-.67,2.78-.87,4.24-.19,1.34,1.4,5.72,2.27,6.77,1.05,1.26,2.24.96,2.8,1.45,2.84,2.49-.28,4.93.59,8.35,1.3,5.13,5.66,5.3,6.33,7.73.63,2.36-2.05,3.49-.07,7.8,1.69,3.7,5.06,3.54,5.53,5.41.72,2.86-2.52,3.34-.08,8.6,1.72,3.72,4.39,3.37,5.08,4.45,1.57,2.47-2.01,8.33,2.34,12.23.93.83,2.92,1.06,3.49,1.97,1.46,2.31-2.34,6.22,1.9,11.3,1.21,1.45,3.95,2.4,4.36,4.22.15.69-2.45,4.59-.46,7.04ZM582.06,335.82c-.22-.75-.62-1.99.63-1.78.09.43-.13,1.43,0,1.54.98.81,2.66-1.88,3.1-1.55l.78,4.66c-2.67.34-3.78-.34-4.52-2.88Z"/>
  <rect class="cls-19" x="616.11" y="678.55" width="7.81" height="9.36"/>
  <rect class="cls-19" x="627.78" y="678.55" width="8.58" height="9.36"/>
  <path class="cls-19" d="M645.57,519.63c-4.43-7.49-15.58-8.63-23.42-7.31-16.7,2.79-17.42,32.67-9.78,43.62,6.1,8.75,23.23,9.16,30.58,2.07,7.55-7.27,7.67-29.81,2.61-38.38ZM638.67,542.84c-.91,9.2-8.81,15.66-16.72,8.96-5.96-5.04-6.1-29,3.29-30.93,13.92-2.86,14.42,11.97,13.43,21.97Z"/>
  <path class="cls-19" d="M658.12,561.9v-27.99c-.96-.17-4.42.25-4.66,0-.26-.25-.14-6.54.11-7.28.71-2.15,4.18-.92,4.56-1.27.49-.46-.9-9.02,3.15-12.79.31-.3,3.25-1.99,3.46-1.99h12.05c-.22,1.31.31,7.49,0,7.78-.88.87-9.81-2.69-9.35,6.6,8.68.66,10.27-1.13,9.35,8.96h-8.56v27.99h-10.11Z"/>
  <path class="cls-19" d="M702.46,533.91h-9.34v27.99h-9.34v-27.99c-.86-.16-3.65.23-3.9,0-.31-.3-.31-8.26,0-8.56.3-.28,3.6.29,3.9,0,.46-.45-1.04-7.63,3.07-12.09.57-.61,3.04-2.69,3.54-2.69h12.05v8.55c-2.86-.93-7.21-1.6-8.75,1.75-3.73,8.08,6.52,2.49,8.42,5.21.98,1.4.01,5.9.34,7.83Z"/>
  <rect class="cls-19" x="707.89" y="525.35" width="9.34" height="36.56"/>
  <rect class="cls-19" x="707.1" y="511.34" width="10.14" height="9.36"/>
  <path class="cls-19" d="M721.12,695.28c-4.28-1.82-16.53-1.72-20.79.21-6.85,3.1-5.75,19.52-4.87,25.85h-15.55c.1-7.3.53-17.61-5.84-22.55-1.2-.93-5.79-3.12-6.99-3.12h-14.39l9.33-14.76c-2.56-.16-6.07-5.11-8.55-3.55-1.96,1.24-11.98,18.18-11.55,20.83,1.66,10.05,15.19,5.99,22.05,6.79,7.75.91,6.53,10.49,6.6,16.35h-39.67v-26.44h-9.33v26.44h-17.11v-26.44h-9.33v26.44h-26.83c-.23,0-3.42-1.91-3.85-2.37-3.31-3.55-2.27-12.77-.43-17.06l-9.3.03c-3.16,12.35-3.33,25.71,12.11,27.88,54.01.66,108.14-.94,162.07.87v-26.05c0-2.42-5.27-8.27-7.78-9.34ZM720.34,721.33h-15.55c-.43-6.22-3.67-19.49,5.82-19.51,11.37-.03,9.66,11.39,9.73,19.51Z"/>
  <path class="cls-19" d="M751.44,553.35c.22,7.61,1.24,8.58-6.62,9.32-12.71,1.19-19.58-2.62-20.58-15.94-.99-13.11,3.88-22.89,18.25-22.14,1.16.06,8.58,1.28,8.87,1.62.55.65-.22,6.2.08,7.7-8.93-.05-16.74-3.17-17.15,8.92-.43,12.48,6.71,12.61,17.14,10.52Z"/>
  <path class="cls-19" d="M788.78,535.85c0-.34-2.01-4.64-2.46-5.31-6.55-10.01-24.27-7.03-28.11,4.31-3.63,10.73-1.4,26.64,12.26,27.88,2.5.22,15.43-.23,16.67-1.66.51-.6-.2-5.54.08-6.93-7.72-.69-18.78,4.37-21-6.22h22.55v-12.05ZM779.45,540.12h-12.44c-1.13-10.29,13.58-10.27,12.44,0Z"/>
  <g>
    <path class="cls-10" d="M434.14,600.02l-6.25,27.96c-1.71-.63-5.75.78-6.62.61-1.4-.27-5.61-19.54-6.96-22.36-1.53,2.69-4.92,20.84-5.91,21.7-.37.31-6.22.25-6.96-.26-1.13-.79-6.61-23.87-6.93-26.54-.27-2.22,3.54-.75,4.63-1.11l5.45,23.73c1.36.63,1.45-1.45,1.68-2.22,1.34-4.48,3.89-18.04,6.02-21.05.65-.92,3.19-.64,4.01-.1,1.33.87,5.3,18.35,6.45,21.58.33.95.14,2.64,1.68,2.17,1.17-.36,4.18-23.2,5.1-24.08.37-.36,3.61.15,4.63-.03Z"/>
    <path class="cls-30" d="M363.37,624.12v3.89h-21.78v-39.66c1.98-.04,4.46-.53,4.71,1.96l-.82,33.81h17.89Z"/>
    <rect class="cls-32" x="575.67" y="736.87" width="9.36" height="8.58"/>
    <g>
      <path class="cls-1" d="M554.69,607.4v20.61h-3.89c-.81-.78.1-19.91-1.16-22.55-1.6-3.37-11.42-2.72-12.7-.64-1.33,2.16.56,19.39.65,23.2h-4.67v-21.39c0-1.71-4.22-4.1-5.9-4.27-1.9-.19-7.31,1.81-7.31,3.49v22.16h-4.66v-27.99c3.74-1.45,4.74,1.61,5.04,1.56,2.93-.51,4.19-2.9,9.36-2.36,2.67.28,5.69,2.87,6.2,2.87,1.98,0,5.84-3.69,11.63-2.8,3.72.57,7.43,4.39,7.43,8.11Z"/>
      <polygon class="cls-1" points="458.25 593.01 458.25 607.79 473.81 607.79 473.81 611.68 458.25 611.68 458.25 628.01 453.59 628.01 453.59 589.12 476.92 589.12 476.92 593.01 458.25 593.01"/>
      <path class="cls-23" d="M504.47,604.62c-.6.22-5,2.11-5,2.39v20.99h-3.9s-.66-27.49-.66-27.49c.59-1.8,3.05-1.25,4.56-1.28-1.07,7.56,3.23,1.45,6.98.37,1.04-.3,2.03-.51,3.13-.37.77,6.62-.78,3.81-5.1,5.39Z"/>
      <rect class="cls-3" x="482.36" y="600.01" width="4.66" height="27.99"/>
      <rect class="cls-29" x="482.35" y="588.34" width="4.68" height="4.68"/>
    </g>
    <g>
      <g>
        <path class="cls-21" d="M423.26,151.27v271.03c0,2.37-1.84,8.75-2.56,11.45-3.9,14.8-11.92,28.15-18.45,41.82-.59.4-6.49-10.67-7.13-11.91-4.3-8.4-14.64-31.13-14.64-39.8V151.27c.7-.95,12.99,8.62,14.05,10.46.72,1.27,1.43,11.46,1.54,14.01,1.02,22.93.15,46.96.71,70.06,1.1,45.03,2.87,90.22,3.96,135.26.41,17.03-.4,34.03,1.13,50.98l6.57-267.97c.57-4.46,10.72-10.81,14.82-12.79Z"/>
        <path class="cls-2" d="M466.82,142.34c-1.17,10.59-15.65,13.1-21.37,4.22-1.1-1.72-1.81-5.9-2.05-6.11-2.37-2.04-20.71,4.75-24.07,6.49-7.28,3.77-12.98,9.13-17.46,15.96-9.22-14.55-25.85-21.11-42.38-23.32.75,7.02-4.96,12.98-12.05,12.46-14.34-1.05-14.65-22.49,1.55-24.12,33.93,1.9,70.65-2.56,104.24-.04,8.91.67,14.67,4.75,13.59,14.44Z"/>
        <path class="cls-15" d="M414,58.41c-1.17,2.95-.34,6.57-1.25,8.08-.97,1.62-6.14,2.93-7.38,5.07,3.87.8,8.46-5.26,9.25.83.9,7.02-.85,5.21-5.36,9.28l6.22-1.16c-.81,2.63,1.31,6.64.82,8.78-.17.77-4.85,2.56-5.48,4.05l5.43-1.16c-.51,4.58,1.98,9.81-3.1,12.05.21.93,2.19-.22,2.39.81.94,4.87-2.07,12.99-1.61,18.24-3.07-.67-23.29.88-24.11,0-.22-.23-.57-5.94-.43-6.22.98-1.94,7.01-3.8,8.21-6.22l-8.18,3.1c-1.1.36-1.6-7.63-.78-9.33.77-1.57,5-2.88,5.84-4.65l-6.99,1.54c.3-2.41-.54-5.8.14-8.02.63-2.04,5.08-3.29,6.07-5.19l-6.21,1.54c1.31-3.9-1.04-10.87,3.87-11.67.28-1.58-2.17-.1-2.37-1.19-.84-4.49,2.22-11.72,1.58-16.24-.69-4.84-9.24-10.25-9.3-12.48-.11-4.08,16.36-16.04,20.6-16.04s20.07,11.37,20.45,15.36c.28,2.92-6.9,7.28-8.32,10.84Z"/>
      </g>
      <path class="cls-13" d="M359.1,164.49c-13.46,0-37.58,15.54-50.41,21.13-4.32,1.89-19.95,8.37-23.74,5.96-.18-.11-1.04-2.66-2.04-3.78-1.61-1.83-3.82-4.21-6.28-4.6-12.31-1.98-20.61,9.27-14.51,19.95.78,1.37,3.81,3.94,3.84,4.49.04.46-1.26,2.31-1.4,3.9-.17,2.1,1,4.93.72,6.08-.51,2.07-7.89,4.13-6.87,10.98.16,1.03,1.41,1.94,1.22,2.81-.43,1.85-4.12,3.19-5.51,6.17-2.33,5,.6,5.96.1,7.8-.49,1.81-5.36,4.29-6.39,8.55-.68,2.8,2.4,4.77.51,7.26-1.02,1.35-3.59.51-5.33,4.95-1.86,4.75.81,5.44.32,7.24-.77,2.87-7.46,4.22-6.8,11.3.16,1.78,2.25.48,1.34,2.75-1.08,2.69-3.82,1.84-5.53,5.38-2.08,4.33.16,7.63-.89,9.93-.62,1.35-2.31,1-3.43,2.08-4.21,4.07-.77,9.19-2.02,11.91-.62,1.34-3.16,1.04-4.76,3.87-2.9,5.16.54,7.49-.69,10.14-.6,1.31-3.09,1.14-4.52,3.32-2.18,3.32.58,5.53-5.09,4.64,1.32,16.26,14.26,30.85,28.5,38,35.7,17.94,87.42,4.55,95.93-38-6.05,1.06-4.19-1.39-6.65-4.63-1.28-1.68-4.29-2.91-4.67-4.64-.25-1.14,1.09-2.34,1.22-3.63.6-5.95-6.13-7.93-6.67-10.39-.16-.73,1.43-2.16,1.07-4.89-.71-5.58-5.89-6.64-6.57-9.14-.49-1.85,2.65-3.18-.13-8.34-1.66-3.09-4.46-3.02-5.08-4.31-1.31-2.74,1.33-3.42.93-6.22-.81-5.66-5.72-6.21-6.37-7.81-.87-2.11,1.75-4.01.06-8.53-1.61-4.32-4.72-3.67-5.5-5.46-1.24-2.85,1.13-3.28.93-5.43-.07-.87-1.61-4.99-2.18-5.68-1.19-1.46-3.55-1.34-4.21-2.9-.87-2.07.43-4.14.32-6.37-.33-6.6-5.55-5.95-6.19-7.93-.68-2.07,1.31-3.07,1.48-4.58.67-5.8-6.46-8.49-6.89-10.21-.28-1.17.78-3.01.75-4.53-.04-1.78-1.15-3.72-.74-5.27,1.47-5.53,11.21-4.6,15.61-5.44,3.6-.69,7.18-1.57,10.72-2.51,22.54-5.99,45.04-22.58,69.22-12.05v-23.33h-16.72ZM274.71,257.82c-1.5-.78-2.38-.78-3.88,0v-6.22c1.02,1.8,3.75.61,3.88.78.31.38-.2,4.34,0,5.45ZM274.7,316.14c-.15.2-2.12-2.63-3.87,0v-6.99c1.34,2.11,3.75.6,3.88.77.36.47-.24,5,0,6.22ZM271.57,295.21c.4.31-.74,3.25,3.13-.06v6.22s-3.87,0-3.87,0c.67-1.66-1.74-8.12.74-6.16ZM270.83,286.59c-.31-.38.2-4.34,0-5.45,1.5.78,2.38.78,3.88,0v6.22c-1.02-1.8-3.75-.61-3.88-.78ZM270.83,272.59v-6.99c1.32-.34.48,1.13.85,1.44,1.4,1.16,3.99-4.12,3.02,5.55-.15.19-2.12-2.63-3.87,0ZM270.83,243.05c-.31-.38.2-4.35,0-5.45,1.5.78,2.38.78,3.88,0v6.22c-1.02-1.8-3.75-.6-3.88-.77ZM273.48,228.19c-.89-.07-2.49,1.05-2.65.85v-6.22c1.5.78,2.38.78,3.88,0v6.99c-1.34.36-.34-1.56-1.23-1.63ZM266.94,208.82c.25-.22,2.81.61,2.98.9.61.99.38,5.02-1.42,5.32l-.41-2.35c-3.51,2.16-1.23-1.36-1.15-3.87ZM262.26,222.39c.67-.48,2.28,1.96,3.89.43.4.47-1.72,5.83-2.72,6.22-.22.09-.31-3.01-3.49-.78-.57-.68,1.49-5.28,2.31-5.87ZM256.82,236.4c.7-.47,2.25,1.95,3.89.42.4.46-1.72,5.83-2.72,6.22-.22.08-.32-3.02-3.49-.78-.37-.43,1.55-5.34,2.32-5.86ZM254.45,251.64c.32,2.01-.38,4.07-1.91,5.4-.72-2.43-1.41-1.6-3.49-.78.81-3.34,1.6-6.25,5.4-4.63ZM245.94,264.04l3.88,1.57-2.72,5.43c-.72-2.43-1.42-1.59-3.49-.78l2.34-6.22ZM240.5,277.27c1.49-.25.31,1.58.89,2.23.4.44,2.02-.07,2.21.1.78.71-1.64,4.34-1.56,5.44l-3.88-1.56,2.34-6.21ZM235.82,291.26v2.34c4.64-2.31,1.13,2.58.78,5.43-1.29-2.12-3.73-.61-3.87-.78-.62-.75,2.44-7.83,3.1-7ZM230.35,306.07c.07.05-.27.81.66,1.49.39.28,1.54-.11,1.7.04.49.43-1.68,4.29-1.56,5.43-2.13.33-1.39-2.34-3.88-1.55.43-1.17,1.46-6.7,3.08-5.41ZM216.38,338.69l1.57-4.65c1.27-.34.46,1.1.9,1.37.85.51,2.03.13,2.99.19-.81,4.01-1.59,3.23-5.45,3.09ZM221.83,325.47c-.54-.47,2.4-7.16,3.1-6.22.07.67-.26,1.79.13,2.24.32.36,1.6.07,2.21.1-.49.93-1.37,5.24-1.56,5.45-1.16,1.25-1.64-1.27-2.18-1.53-.52-.25-1.55.1-1.7-.04ZM272.41,335.85c-.02.23-2.95,2.75-3.51,2.86l-46.3-.02c2.16-2.62-1.05-4.91-.48-7.01.81-2.95,5.75-2.34,6.55-8.35.37-2.83-1.29-4.59-1.06-5.69.57-2.7,6.34-2.69,6.72-8.9.13-2.23-1.23-4.28-.34-6.4.63-1.49,2.58-1.31,3.75-2.57,3.84-4.1.31-8.17,1.71-11.45.62-1.46,2.62-1.4,3.79-2.49,4.1-3.8.3-8.57,1.64-11.5.57-1.23,3.23-1.26,4.83-3.81,3.25-5.2-.1-6.99.4-8.84.63-2.35,5.07-3.23,6.2-7.93.81-3.34-.54-2.99-.9-5.07-.66-3.82,3.07-3.02,4.85-5.72,3.5-5.31.13-7.08.75-9.28.75-2.7,6.52-3.75,6.49-9.85,0-1.13-2.9-8.08,2.04-7.09,4.57.93.01,5.07-.26,6.47-.54,2.72-.04,5.46,1.07,7.88.13.28,1.53-.08,1.32,2.19-.28,3.15-3.27,3.57-2.45,9.4.37,2.63,2.63,3.31,2.42,5.37-.21,2.05-2.71,2.28-2.41,7.84.22,4.23,1.82,3.68,2.15,4.43,1.45,3.31-1.46,4.13-1.96,5.81-1.84,6.12,2.4,8.08,2.26,11.52-.04,1.03-3.25,2.76-2.46,8.59.36,2.63,2.64,3.29,2.43,5.36-.16,1.55-1.87,2.13-2.22,3.31-.43,1.38-.46,6.93.25,8.02.48.74,1.87.22,2.02,1.93.26,3.03-3.3,4.4-2.46,10.16.4,2.8,2.58,3.02,2.46,6.19-.06,1.47-1.65,1.02-2.08,2.62-.51,1.87-.77,6.25.08,7.87.42.8,3.1,1.01,2.72,4.15ZM270.83,330.15c-.34-.41.22-5.03,0-6.23,1.02,1.8,3.75.61,3.88.78.34.41-.22,5.03,0,6.22-1.01-1.8-3.74-.6-3.87-.77ZM322.15,338.7h-46.66c-.27-.16-1.72-4.15-1.66-5.05.1-1.71,1.91-1.24,2.31-2.43.36-1.06.34-4.93.1-6.12-.37-1.9-2.41-2.34-2.4-4.68,0-2.14,1.77-2.87,2.48-4.6,2.48-6.08-1.98-6.42-2.43-9.44-.44-2.99,1.72-3.2,2.2-4.78,1.73-5.67-2.5-8.19-2.27-11.52.13-1.72,1.91-1.23,2.31-2.42.35-1.01.32-4.22.16-5.4-.37-2.66-2.46-3.12-2.46-5.4,0-2.57,3.28-3.6,2.46-9.38-.36-2.54-1.71-2.58-2.21-4.01-1.38-3.88,1.6-3.28,2.05-4.59,1.86-5.44-2.46-9.43-2.26-11.54.2-2.1,3.25-2.84,2.42-8.64-.4-2.82-2.69-3.16-2.46-6.18.13-1.77,2.06-1.03,2.44-3.08.23-1.23.21-5-.03-6.24-.25-1.31-5.28-6.44-.34-5.88,5.48.63,1.87,4.07,1.93,6.57.16,5.72,6.12,7.43,6.65,9.76.27,1.16-2.68,4.04.17,9.14,1.49,2.68,4.36,2.6,4.78,3.84.68,2.02-1.99,5.42.66,10.17,1.54,2.75,2.92,1.96,4.43,3.37,2.06,1.92-.43,3.49-.36,5.72.02.72,1.31,4.75,1.69,5.37,1.23,2.03,4.32,1.81,5.01,4.41.45,1.69-1.86,2.55-.91,6.25,1.26,4.94,5.77,5.66,6.34,7.74.6,2.16-2.28,3.06-.08,7.8,1.43,3.07,4.97,4.16,5.53,6.19.49,1.78-1.14,2.72-1.19,4.28-.02.93,1.45,4.8,2.02,5.65,1.2,1.81,3.72,1.66,4.57,3.33.85,1.65-2.02,7.58,2.12,11.43.7.65,1.92.55,2.65,1.22,2.96,2.67-.9,5.39.24,9.11ZM327.59,334.03c.16.18.48,3.8,1.57,4.66-3.93.33-5.49.56-5.44-3.88,1.98,2.45,2.76-2,3.87-.78ZM321.38,320.37c.79.51,2.88,5.22,2.31,5.89l-2.32-.78-.78,1.96-2.32-6.61c1.02,1.1,2.4-.92,3.11-.45ZM315.54,306.04c1,.43,3.35,5.49,2.72,6.22-1.74-1.31-3.3.76-3.49.76-.57,0-3.04-5.84-2.72-6.2,2.08.82,2.78,1.65,3.49-.78ZM311.26,292.8c.21.19,1.75,5.25,1.56,5.45-.23.25-1.37-.55-1.95-.43-.85.19-1.57,1.47-1.93,1.21-.27-.19-2.04-5.23-2.34-6.22,1.16,1.34,4.46-.18,4.65,0ZM303.81,279.67c.9-.07-.1-1.98,1.22-1.63-.24,1.41,3.02,5.49,2.34,6.22-.25.27-1.42-.54-1.95-.72-1.09.07-.01,4.15-1.92,2.27-.27-.26-2.72-6.55-2.34-6.99.9.16,1.69.93,2.65.85ZM298.37,265.67c.9-.07-.1-1.98,1.22-1.62l2.34,6.21c-1.46-1.19-3.37.81-3.89.43-.76-.53-2.69-5.45-2.32-5.87.9.17,1.68.93,2.65.85ZM292.92,251.67c.9-.07-.11-1.99,1.22-1.63l2.34,6.21c-3.11-1.41-2,.43-3.88,1.55l-2.33-6.99c.16-.18,1.73.93,2.65.86ZM288.7,236.05l2.34,6.21c-1.44-1.17-3.4.81-3.9.45-1.14-.84-2.08-4.52-3.1-5.88,2.23.76,2.87.77,4.66-.78ZM283.25,222.04c1.16,3.88,3.19,4.68-1.16,6.99l-2.71-6.99c1.9,2.69,3.52-.24,3.87,0Z"/>
      <path class="cls-34" d="M586.95,333.27c-1.34-1.55-3.16-1.23-3.77-2.54-1.25-2.72,2.2-7.84-2.01-11.92-1.12-1.07-2.81-.73-3.43-2.08-.97-2.12,1.04-6.42-1.1-10.49-1.11-2.13-2.72-1.81-4.03-2.96-3.1-2.71.02-3.75-.04-6.09-.02-.94-1.51-4.87-2.08-5.72-1.2-1.8-4.37-1.9-4.85-3.85-.44-1.81,2.49-2.49.54-7.46-1.67-4.27-4.9-4.01-5.55-5.42-.94-2.07,1.77-3.54-.14-8.34-1.69-4.26-5.33-4.72-5.74-5.98-.67-2.09,1.35-3.08,1.44-4.52.07-1.32-1.9-6.14-3-7.11-1.49-1.28-4.19-.85-3.9-3.81.11-1.13,1.16-1.78,1.34-2.53.34-1.46-1.81-6.57-2.91-7.63-1.32-1.28-3.11-.57-3.62-2.63-.63-2.51,1.1-2.79,1.2-4.29.04-.63-1.28-4.58-1.68-5.29-1.41-2.52-4.72-2.69-5.19-4.19-.46-1.46.96-3.87.69-6.02-.23-1.91-2.53-3.84-2.32-4.69.09-.37,2.47-1.84,3.31-2.96,7.58-10.23.43-23.14-12.28-21.6-6.14.74-8.93,8.93-10.15,9.21-.69.16-8.24-1.43-9.67-1.81-20.65-5.45-40.81-23.6-62.6-26.05-4.79-.54-11.29,0-16.33,0-.08,0-1.16,1.08-1.16,1.16v21.38c23.71-8.9,44.89,5.79,66.89,12.05,4.53,1.3,9.21,2.34,13.83,3.28,3.88.78,13.86.34,14.82,5.4.17.88-1.38,2.81-1.5,4.57-.13,2.04,1.21,4.69.76,6.07-.47,1.47-5.32,2.81-5.99,8.13-.39,3.07,1.47,4.37,1.34,5.14-.21,1.28-7.39,4.13-6.93,10.16.14,1.8,2.02,2.73,1.04,4.9-.6,1.33-2.96,1.08-4.48,3.38-.51.77-1.96,4.23-2.02,5.07-.21,2.37,2.04,3.77.79,5.93-.79,1.37-3.39.98-5.06,4.48-2.28,4.81.41,6.18.05,7.85-.48,2.21-5.81,3.61-6.52,9.08-.34,2.72,1.25,4.16,1.08,4.9-.52,2.34-6.55,4.08-6.73,9.69-.05,1.76,1.21,3.88.76,5.3-.51,1.66-5.59,1.71-6.12,8.01-.18,2.1.97,4.02.45,5.75-.79,2.63-4.41,1.9-5.55,6.19-.88,3.34.83,6.16-.09,8.37-.63,1.5-2.58,1.31-3.75,2.57-1.32,1.41-1.84,5.14-2.06,5.32-1.68,1.42-4.55-2.94-3.72,4.28.44,3.86,3.47,9.75,5.51,13.16,26.15,43.56,109.14,36.3,118.06-17.34-5.55,1.25-3.33-2.51-5.84-5.43ZM580.34,320.04c-.03,1.16,2.34,4.68,1.55,5.43-.25.25-2.76-.37-2.7,1.57-1.01-.43-3.34-5.52-2.72-6.22,3.28,2.03,1.19-1.02,3.87-.78ZM574.14,306.38c.82.6,2.9,5.19,2.32,5.87l-2.32-.78-.39,2.34-3.49-6.61c1.54.75,3.34-1.21,3.88-.81ZM568.7,292.4c.76.51,2.69,5.43,2.31,5.86-2.07-.82-2.77-1.66-3.49.78-1-.43-3.33-5.46-2.72-6.22,1.63,1.53,3.18-.88,3.89-.41ZM562.85,278.04c1.02.4,3.11,5.79,2.72,6.22-.32.34-2.13-1.05-2.32-.78l-.39,2.34c-1.24-.59-3.92-6.52-3.5-6.99,3.17,2.24,3.27-.87,3.49-.78ZM560.13,270.26c-1.44-1.18-3.4.81-3.9.44-.64-.47-2.72-4.69-2.32-5.1,4.96-1.7,4.66.71,6.22,4.66ZM552.34,250.04l2.34,6.22c-1.46-1.18-3.37.81-3.9.43-.53-.37-2.53-4.89-2.33-5.08.15-.14,3.11-.41,3.88-1.57ZM546.9,236.05l2.35,6.21-3.11-.78-.39,2.34-2.72-6.99c3.28,2.03,1.2-1.02,3.87-.78ZM539.27,223.55c.99-.69.32-1.99,2.19-1.51l2.34,6.21-3.1-.78-.39,2.34c-.83-.71-3.07-5.9-2.72-6.21.16-.15,1.28.24,1.69-.05ZM536.01,208.82c.19.15,1.73,4.48,1.57,4.66l-3.89.78c-.59-1.1.29-6.99,2.32-5.44ZM520.86,222.04c.73-.11.17,1.13.51,1.45.54.51,1.93-.97,2.2-.67l-1.56,6.22-3.88-1.56,2.73-5.43ZM515.79,236.05c.1.08-.15,1.12.14,1.39.78.71,2.1-.48,2.98-.61.43.51-1.94,6.22-2.71,6.18-.35-.01-1.68-2.29-3.5-.74-.34-.4,2.33-6.84,3.09-6.22ZM509.59,250.04c1.29,2.12,3.72.61,3.87.78.7.81-2.61,4.75-2.34,6.22-1.29-2.12-3.72-.61-3.87-.78-.7-.81,2.61-4.75,2.34-6.22ZM503.76,264.83c1.13-2.1,1.18.49,1.31.54,1,.44,1.92.25,2.95.22-.55,1.04-1.75,5.44-2.72,5.4-.35-.01-1.68-2.29-3.5-.74-.25-.29,1.57-4.71,1.96-5.43ZM498.32,278.83c1.13-2.1,1.18.49,1.31.55,1.01.44,1.92.25,2.95.22-.6.78-2.21,6.14-3.1,5.43-.3-.25.84-2.9-3.11-.78-.25-.28,1.56-4.72,1.95-5.43ZM494.02,292.04c.11.1-.15,1.13.15,1.41.54.52,2.13-.9,2.97-.63l-2.34,6.22c-1.29-2.12-3.73-.61-3.87-.78-.78-.94,2.36-6.84,3.1-6.22ZM488.58,306.04c.32.29-.88,2.64,2.33.77l-1.56,6.22c-2.13.34-1.37-2.34-3.87-1.55.38-1.13,1.54-6.8,3.1-5.43ZM474.58,338.69c.75-.81,1.37-4.51,1.57-4.66.17-.13,2.34,2.13,3.87.78-.41,4.41-1.19,4.23-5.44,3.87ZM481.66,320.84c.27-.19,2.74.96,3.81-.03.58.87-1.72,5.79-2.72,6.22.04-1.96-2.44-1.31-2.72-1.56-.21-.19,1.43-4.49,1.63-4.63ZM528.24,338.7h-47.44c2.01-2.79-.91-5.42-.49-7.01.61-2.36,5.08-2.66,6.37-7.75.76-3.01-.99-5.31-.34-7.26.51-1.52,4.41-1.54,5.61-6.11.88-3.35-.83-5.93.25-8.24.71-1.52,4.84-1.25,5.58-6.99.32-2.55-1.21-4.69-.13-7.01.61-1.31,3.62-1.16,5.32-4.84,2.2-4.75-.67-5.62-.08-7.8.72-2.68,4.51-1.96,5.96-7.35,1.07-3.97-1.02-4.84-.51-6.65.63-2.26,5.29-3.55,6.35-8.54.63-2.96-1.69-5.3-.46-7.2.96-1.48,4.69-1.16,5.91-6.81.58-2.69-2.08-4.64-.46-7.19,1.07-1.68,5.17-.81,5.5-7.21.08-1.63-1.9-7.53,1.12-7.42,6.8.25,1.31,4.39.8,5.52-2.61,5.69,2.52,8.17,2.75,10.53.28,2.81-5.15,4.46-2.58,10.27.59,1.32,2.41,2.16,2.58,3.73.27,2.71-5.33,4.78-2.58,11.05.88,2,3.63,2.54,2.15,5.62-.89,1.84-2.63,1.12-2.81,5.05-.25,5.39,3.16,5.38,3.28,7.02.28,3.68-2.96,3.72-3.27,6.99-.45,4.77,2.99,5.66,3.22,7.83.3,2.88-5.49,4.04-2.46,10.95.75,1.71,2.4,1.51,2.52,3.01.28,3.73-4.75,5.2-3.05,10.73.53,1.75,2.8,1.85,3.03,4.86.2,2.64-1.78,1.84-2.62,3.63-2.79,5.89,2.39,7.98,2.59,10.37.04.52-1.37,4.24-1.6,4.24ZM532.91,229.04c-1.14-1-3.78.18-3.88,0-.22-.37-.11-4.31-.78-5.44,4.59.04,5.13.49,4.66,5.43ZM532.91,237.6v6.22c-1.25-1.34-3.75.16-3.88,0-.21-.23-.64-5.22-.78-6.22h4.66ZM532.92,252.35v5.47s-4.68,0-4.68,0v-5.47s4.68,0,4.68,0ZM532.91,272.59h-4.66v-6.22c.87.41,4.45.65,4.61.81.4.4-.16,4.28.04,5.4ZM532.86,286.55c-.14.13-3.7.59-3.87.49-1.35-.93-.6-4.37-.75-5.88h4.66c-.2,1.1.34,5.02-.04,5.4ZM532.91,301.36c-1.16-.98-3.74.15-3.87,0-.23-.25-1.07-5.9-.79-6.22.87.42,4.45.66,4.61.82.4.4-.16,4.28.04,5.4ZM532.91,309.92c.11,4.46.96,5.98-3.87,6.22l-.79-6.22h4.66ZM529,330.58c-1.35-.93-.6-4.37-.75-5.88h4.66c-.2,1.1.34,5.03-.04,5.4-.14.14-3.7.6-3.87.49ZM581.13,338.7h-46.28c-7.13-4.25-.51-5.87-.31-10.48.22-4.95-3.22-5.78-3.28-8.58-.02-1.39,3.13-1.59,3.26-6.21.13-4.63-2.87-5.91-3.07-7.91-.13-1.47,4.74-3.55,2.84-9.82-.52-1.74-2.99-2.02-3.04-4.84-.02-1.55,1.93-1.37,2.63-2.87,2.96-6.35-2.57-8.76-2.63-11.9-.03-1.55,1.93-1.37,2.63-2.88,2.93-6.28-2.57-9.21-2.58-11.11,0-1.85,4.94-3.47,2.98-9.96-.49-1.63-4.35-3.27-2.81-5.86.46-.78,2.59-.01,3.01-3.6.78-6.63-2.99-6.99-3.19-7.94-.69-3.09,5.02-4.71,2.99-11.37-.31-1.01-1.62-1.57-2.01-2.66-1.4-3.87,2.51-5.48,3.95-2.34,1.18,2.6-1.76,8.07,2.07,11.88,1.34,1.34,5.04,1.55,4.52,4.47-.31,1.76-1.96,1.51-1.01,5.22,1.28,5.04,5.05,5.11,6.1,7.19,1.07,2.13-.67,2.78-.87,4.24-.19,1.34,1.4,5.72,2.27,6.77,1.05,1.26,2.24.96,2.8,1.45,2.84,2.49-.28,4.93.59,8.35,1.3,5.13,5.66,5.3,6.33,7.73.63,2.36-2.05,3.49-.07,7.8,1.69,3.7,5.06,3.54,5.53,5.41.72,2.86-2.52,3.34-.08,8.6,1.72,3.72,4.39,3.37,5.08,4.45,1.57,2.47-2.01,8.33,2.34,12.23.93.83,2.92,1.06,3.49,1.97,1.46,2.31-2.34,6.22,1.9,11.3,1.21,1.45,3.95,2.4,4.36,4.22.15.69-2.45,4.59-.46,7.04ZM582.06,335.82c-.22-.75-.62-1.99.63-1.78.09.43-.13,1.43,0,1.54.98.81,2.66-1.88,3.1-1.55l.78,4.66c-2.67.34-3.78-.34-4.52-2.88Z"/>
    </g>
    <g>
      <g>
        <rect class="cls-4" x="627.78" y="678.55" width="8.58" height="9.36"/>
        <rect class="cls-28" x="616.11" y="678.55" width="7.81" height="9.36"/>
        <path class="cls-18" d="M721.12,695.28c-4.28-1.82-16.53-1.72-20.79.21-6.85,3.1-5.75,19.52-4.87,25.85h-15.55c.1-7.3.53-17.61-5.84-22.55-1.2-.93-5.79-3.12-6.99-3.12h-14.39l9.33-14.76c-2.56-.16-6.07-5.11-8.55-3.55-1.96,1.24-11.98,18.18-11.55,20.83,1.66,10.05,15.19,5.99,22.05,6.79,7.75.91,6.53,10.49,6.6,16.35h-39.67v-26.44h-9.33v26.44h-17.11v-26.44h-9.33v26.44h-26.83c-.23,0-3.42-1.91-3.85-2.37-3.31-3.55-2.27-12.77-.43-17.06l-9.3.03c-3.16,12.35-3.33,25.71,12.11,27.88,54.01.66,108.14-.94,162.07.87v-26.05c0-2.42-5.27-8.27-7.78-9.34ZM720.34,721.33h-15.55c-.43-6.22-3.67-19.49,5.82-19.51,11.37-.03,9.66,11.39,9.73,19.51Z"/>
      </g>
      <g>
        <path class="cls-34" d="M411.58,678.56v53.27c0,.31-1.61,5.11-1.94,5.84-6.66,14.84-36.13,12.52-38.43-4.35-1.06-7.77.33-16.14,1.93-23.68l8.9.03c-.26,6.6-2.52,13.97-1.51,20.56,1.9,12.3,20.95,9.18,20.95,1.6v-53.27h10.11Z"/>
        <rect class="cls-5" x="422.47" y="678.55" width="10.15" height="52.15"/>
        <rect class="cls-26" x="447.35" y="676.21" width="9.36" height="9.36"/>
        <path class="cls-18" d="M529.84,719.36c-.4-12.35-2.13-27.01-16.33-30.34-5.01-1.17-11.48-.98-16.57-.15-1.63.26-8.17,1.83-9.17,2.54-.95.68.51,7.29,2.69,7.35,3.85.09,9.1-2.7,14.87-2.34,14,.89,15.2,13.54,15.14,24.92-1.31-.25-6.55.36-6.97-.04-1.27-1.24.75-11.27-6.83-15.34-11.22-6.02-22.62,3.28-21.2,15.38h-13.22c1.72-18.82-7.52-33.25-28-26.44l.78,6.99c14.2-1.96,18.57,6.64,17.89,19.44h-21.78v8.56l87.93.43c1.17-.82.83-8.95.77-10.97ZM504.14,721.33c-4.72-.51-9.81,2.35-9.41-4.28.49-7.82,12.02-4.31,9.41,4.28Z"/>
      </g>
      <g>
        <path class="cls-18" d="M220.26,729.88c-6.13-.18-12.13,1.13-18.22-.04-2.01-.39-5.16-2.84-5.49-2.84-.51,0-5.72,3.34-9.34,3.65-4.16.35-9.28-.65-13.96-.73-6.36-.11-12.74,0-19.09-.04.14,11.7-5.37,19.24-17.88,17.11.23-1.39-.31-8.26,0-8.56.22-.2,3.86.39,5.77-.85.9-.58,2.79-4.27,2.79-4.98v-38.5h9.34v27.22h17.11v-23.33h9.34v22.17c0,1.47,6.92,2.17,8.93-.4.33-.43,1.96-4.03,1.96-4.26v-17.5h9.33v18.28c0,.43-1.2,1.43-.72,2.97.84,2.66,10.27,2.78,11.26,1.35,2.01-2.88-1.22-20-1.25-24.41.35-1.51,6.93-1.25,8.59-2.08,1.75,11.79,3.36,23.86,1.55,35.76Z"/>
        <path class="cls-14" d="M112.45,746.9c-25.7,2.43-44.11-2.04-36.84-32.56l9.34.78c-1.5,11.29-3.04,21.88,11.28,23.32,6.87.69,23.36,1.79,24.46-7.45,1.39-11.62-19.81-5.69-21.7-17.87-3.11-19.99,15.76-21.7,30.29-16.66l-.79,7.76c-5.66-1.54-23.4-4.48-20.07,6.46,1.46,4.83,17,2.69,20.79,11.9,5.69,13.86-3.17,23.05-16.76,24.32Z"/>
        <path class="cls-12" d="M324.49,678.56v52.11l-54.44-.78v-8.56h21c.66-12.68-3.69-21.62-17.89-19.44.33-1.59-.53-5.91.1-6.9,1.61-2.51,14.11-1.5,17.31-.02,9.77,4.54,9.72,17.3,10.58,26.36h14v-42.77h9.34Z"/>
        <rect class="cls-27" x="335.33" y="678.55" width="10.15" height="52.15"/>
        <rect class="cls-16" x="92.71" y="753.21" width="7.8" height="8.58"/>
        <rect class="cls-20" x="105.15" y="753.21" width="7.81" height="8.58"/>
        <path class="cls-20" d="M228.84,716.27c.54,5.43,5.13,13.61,11.26,13.61h12.06c.87,11.55-10.2,8.65-17.89,7.78v8.55c9.14.87,18.42,3.19,24.45-5.49.9-1.31,3.55-6.89,3.55-8.12v-37.72c-18.6-3.96-35.76-2.05-33.43,21.38ZM252.94,721.33c-8,.35-14.86,1.24-14.84-8.94.01-8.9,5.33-11.58,13.58-10.55.34.09,1.26,2.56,1.26,2.77v16.72Z"/>
      </g>
    </g>
    <g>
      <path class="cls-18" d="M452.03,525.35l-7.04,36.51-14.64-.07c-1.6-6.25-2.77-12.64-3.98-18.98-.18-.98.65-3.32-1.17-2.69-1.04.36-3.21,19.05-4.32,21.74h-14.7l-7.03-36.51c1.95.41,8.03-.63,9.22.1,1.29.81,3.53,26.58,4.78,27.89s1.32-.28,1.57-1.13c2.4-8.14,3.43-17.71,5.45-26.05,2.23.32,8.69-.74,10.13.31,1.16.84,4.3,21.43,5.36,24.97.31,1.04.07,2.41,1.58,2.69,2.6-4.98,2.71-24.93,5.05-28.01,1.24-1.64,7.5-.39,9.74-.76Z"/>
      <polygon class="cls-13" points="53.84 512.91 53.84 561.9 43.73 561.9 43.73 540.91 25.07 540.91 25.07 561.9 15.73 561.9 15.73 512.91 25.07 512.91 25.07 532.35 43.73 532.35 43.73 512.91 53.84 512.91"/>
      <path class="cls-12" d="M158.05,534.3v27.61h-9.34v-22.94c0-.23-1.63-3.93-1.95-4.27-2.49-2.64-10.49-1.07-10.49,1.16v26.05h-9.33v-51.33h9.33v17.11c5.72-2.6,13.11-5.49,18.32-.04.83.88,3.46,5.84,3.46,6.65Z"/>
      <path class="cls-12" d="M587.35,525.35l-13.23,52.11c-3.07-.83-6.31-1.48-9.31,0l3.87-15.55c-1.29-.28-5.55.43-6.14-.08-1.42-1.22-7.25-32.12-8.63-36.47l9.3.03c2.24,8.33,3.43,18.05,6.15,26.12.34,1.02.22,2.37,1.65,2.62,1.16-3.49,5.96-27.73,7.08-28.7.66-.57,7.61.24,9.26-.07Z"/>
      <path class="cls-35" d="M474.97,562.69c-2.55.28-17.01-.25-18.2-1.63-.54-.63.22-6.21-.08-7.71,4.9-.47,13.77,3.09,17.84.34,6.95-4.69-8.61-6.16-10.81-6.97-11.85-4.31-8.26-20.42,4.32-22.08,2.6-.34,15.36.51,16.55,2.38.49.76.34,5.87-.62,6.55-2.07,1.45-19.31-3.49-17.91,3.01.64,2.98,17.5,1.72,19.23,11.13,1.4,7.6-2.4,14.09-10.31,14.99Z"/>
      <path class="cls-13" d="M313.6,553.35v8.55h-28.78v-49h9.34v39.28c0,.08,1.08,1.16,1.16,1.16h18.28Z"/>
      <path class="cls-13" d="M120.64,561.82c-.99,1.16-10.4,1.01-12.38.49-3.12-.81-6.2-4.71-6.2-7.8,0-2.82.73-19.88,0-20.61-.29-.29-4.37.3-4.67,0-.31-.3-.31-8.26,0-8.56s4.37.31,4.68,0c.5-.5-.74-9.95.44-10.13h8.89s0,10.13,0,10.13h8.56s0,8.55,0,8.55h-8.56v17.49c0,3.92,8.96,2.34,9.34,2.72.28.27.16,7.4-.08,7.69Z"/>
      <rect class="cls-4" x="203.94" y="511.35" width="10.11" height="50.55"/>
      <path class="cls-20" d="M550.44,533.94c-1.16,1.75-9.49,2.02-11.31,4.25v23.72h-9.33v-36.56c1.47.25,9-.33,9.34,0,.46.46-.67,3.92.38,4.66,1.06-1.75,10.44-6.31,11.28-5.43-.4,2.24.74,7.72-.36,9.36Z"/>
      <path class="cls-6" d="M354.72,521.17c-1.76-3.54-7.22-8.26-11.18-8.26h-24.5v49h24.5c.38,0,6.19-2.72,6.88-3.22,8.36-6.13,8.51-29.05,4.3-37.51ZM329.15,553.35v-31.89h11.28c3.52,0,5.98,6.16,6.4,9.15,2.06,14.37-.51,25.75-17.68,22.74Z"/>
      <path class="cls-13" d="M266.24,513.37c-6.15-1.04-12.49-1.99-18.64-.36l-11.78,48.89h10.89l2.03-9.38,17.38.08,1.59,9.3h10.88l-12.35-48.53ZM250.6,544.01l4.68-22.8c.6-1.3,2.97-.69,3.72.79,2.41,4.7,3.31,16.46,4.82,22.01h-13.23Z"/>
      <path class="cls-6" d="M94.15,556.19c-.46-1.35-2.58-1.09-2.99-3.22-2.2-11.37,6.25-27.72-12.79-28.43-2.63-.1-12.06.98-13.96,2.28-1.13.77-.14,5.54-.45,7.08,6.11-.44,18.55-4.16,17.88,5.45-10.16-.46-22.57,1.26-20.93,14.32,1.07,8.62,9.03,10.1,16.46,8.82,2.16-.37,5.32-2.78,5.63-2.78.38,0,2.23,2.38,4.05,2.81,5.32,1.25,9.19-.25,7.1-6.33ZM81.75,554.04c-1.13,1.33-9.46,1.9-11-1.69-2.46-5.72,7.21-6.71,11.09-6.01-.3,1.51.47,7.05-.09,7.7Z"/>
      <path class="cls-11" d="M395.08,555.07c-.31-.5-1.8-.19-2.17-2.08-2.19-11.19,5.95-27.16-12.01-28.44-2.34-.16-14.94,1.03-15.87,2.46-.63.97.22,5.31-.1,6.9,6.31.16,20.15-4.9,18.67,5.44-10.65-.17-22.69.32-20.93,14.32,1.01,8.03,7.22,9.66,14.35,9.04,3.01-.26,6.35-2.5,7.69-2.39,1.93.16,6.58,4.22,10.56,2.37-.37-1.85.61-6.34-.19-7.62ZM380.04,554.85c-10.78,1.7-11.62-8.08.29-9.09,5.11-.43,4.87,8.28-.29,9.09Z"/>
      <path class="cls-13" d="M197.55,555.06c-.3-.51-2.28-.53-2.81-2.24-2.58-8.31,5.12-23.96-7.49-27.51-3.18-.89-18.33-.52-19.77,1.7-.63.96.22,5.31-.1,6.9,6.11.1,19.76-4.78,17.89,5.45-9.15-.19-21.26.55-20.79,12.62.37,9.49,7.93,12.01,16.33,10.52,1.86-.33,4.35-2.16,5.64-2.12,1.35.04,2.48,1.78,4.04,2.14,2.25.53,4.91-.01,7.23.16-.37-1.86.6-6.32-.17-7.63ZM185.19,554.04c-.92,1.07-11.27,2.93-10.88-3.42.3-5,7.25-4.4,10.96-5.05-.31,1.58.49,7.81-.07,8.47Z"/>
      <path class="cls-34" d="M522.62,555.07c-.31-.5-1.8-.19-2.16-2.08-2.19-11.18,6.16-27.73-12.78-28.44-2.06-.08-13.53,1.25-14.32,2.47-.63.97.22,5.31-.1,6.9,3.23-.45,15.55-2.06,17.17.51.72,1.15,1.72,4.61-.43,4.93-6.69.99-17.52-.92-19.51,8.5-2.35,11.09,4.81,16.52,15.41,14.64,1.9-.34,4.18-2.1,5.63-2.1,2.37,0,7.55,3.89,11.28,2.28-.37-1.85.62-6.34-.19-7.62ZM506.88,554.92c-3.09.37-7.23.58-7.31-3.49-.13-6.46,7.24-4.69,11.57-5.85-.29,4.87,1.89,8.61-4.25,9.34Z"/>
      <g>
        <path class="cls-2" d="M676.79,533.91h-8.56v27.99h-10.11v-27.99c-.96-.17-4.42.25-4.66,0-.26-.25-.14-6.54.11-7.28.71-2.15,4.18-.92,4.56-1.27.49-.46-.9-9.02,3.15-12.79.31-.3,3.25-1.99,3.46-1.99h12.05c-.22,1.31.31,7.49,0,7.78-.88.87-9.81-2.69-9.35,6.6,8.68.66,10.27-1.13,9.35,8.96Z"/>
        <path class="cls-5" d="M702.46,533.91h-9.34v27.99h-9.34v-27.99c-.86-.16-3.65.23-3.9,0-.31-.3-.31-8.26,0-8.56.3-.28,3.6.29,3.9,0,.46-.45-1.04-7.63,3.07-12.09.57-.61,3.04-2.69,3.54-2.69h12.05v8.55c-2.86-.93-7.21-1.6-8.75,1.75-3.73,8.08,6.52,2.49,8.42,5.21.98,1.4.01,5.9.34,7.83Z"/>
        <path class="cls-7" d="M744.82,562.67c-12.71,1.19-19.58-2.62-20.58-15.94-.99-13.11,3.88-22.89,18.25-22.14,1.16.06,8.58,1.28,8.87,1.62.55.65-.22,6.2.08,7.7-8.93-.05-16.74-3.17-17.15,8.92-.43,12.48,6.71,12.61,17.14,10.52.22,7.61,1.24,8.58-6.62,9.32Z"/>
        <rect class="cls-20" x="707.89" y="525.35" width="9.34" height="36.56"/>
        <rect class="cls-2" x="707.1" y="511.34" width="10.14" height="9.36"/>
        <path class="cls-9" d="M645.57,519.63c-4.43-7.49-15.58-8.63-23.42-7.31-16.7,2.79-17.42,32.67-9.78,43.62,6.1,8.75,23.23,9.16,30.58,2.07,7.55-7.27,7.67-29.81,2.61-38.38ZM638.67,542.84c-.91,9.2-8.81,15.66-16.72,8.96-5.96-5.04-6.1-29,3.29-30.93,13.92-2.86,14.42,11.97,13.43,21.97Z"/>
        <path class="cls-2" d="M788.78,535.85c0-.34-2.01-4.64-2.46-5.31-6.55-10.01-24.27-7.03-28.11,4.31-3.63,10.73-1.4,26.64,12.26,27.88,2.5.22,15.43-.23,16.67-1.66.51-.6-.2-5.54.08-6.93-7.72-.69-18.78,4.37-21-6.22h22.55v-12.05ZM779.45,540.12h-12.44c-1.13-10.29,13.58-10.27,12.44,0Z"/>
      </g>
    </g>
    <g>
      <rect class="cls-33" x="308.15" y="769.55" width="4.67" height="4.68"/>
      <rect class="cls-25" x="316.7" y="769.55" width="4.67" height="4.68"/>
      <path class="cls-31" d="M497.91,766.44c-.09,6.61.11,13.25.04,19.87-.01,1.57-.72,3-.74,4.55-.01,1.75,2.18,14.47-.46,14.47h-12.84v-38.88c-1.1-.21-4.66-.02-4.66,1.16v37.72c-2.82-.03-10.67.46-12.52-1.87-2.56-3.22,2.05-15.14-4.19-20.7-3.95-3.51-17.87-4.55-20.05.19-2.16,4.7-1.49,15.38-.72,20.62.3.63-.74,1.75-1.01,1.75h-13.61v-18.28c0-.43-2.43-4.11-3.07-4.7-2.35-2.13-6.66-2.83-9.77-2.73-1.11.03-9.34,1.28-9.67,1.64-.34.36.13,2.94-.04,3.84,19.25-5.35,20.46,3.57,17.88,20.23h-28.77v-38.88h-4.66v42.77l74.32.07c2.76-3.13,3.01-.47,6.13-.02,9.58,1.37,22.38-1.1,32.32-.04v-42.77h-3.89ZM460.97,805.33c-3.01,0-11.05.61-13.22,0-.77-.22-1.75-1.83-1.93-2.74-.45-2.35-.36-12.22.03-14.71,1.11-7.1,13.54-4.74,15.16.3.7,2.19,2.3,17.15-.04,17.15Z"/>
      <path class="cls-8" d="M376.63,783.13c-4-3.85-14.52-4.82-19.01-1.84-4.68,3.12-2.33,17.29-2.34,22.44,0,.65-.28,1.59-.85,1.59h-12.44c-.85,0-1.11-1.9-1.2-2.68-1.28-10.93,1.65-23.2.81-34.26-.24-2.52-2.72-1.96-4.66-1.94v42.77h42.77v-20.61c0-.94-2.16-4.6-3.07-5.48ZM374.65,805.33c-2.96,0-11.14.6-13.22,0-3.91-1.13-3.22-17.04-1.22-19.88,2.54-3.59,12.46-1.94,14.25,2.19,1.05,2.44,2.58,17.69.19,17.69Z"/>
      <path class="cls-8" d="M327.59,780.44c-10.05.06-25.59-3.84-27.22,10.49-.99,8.72.36,16.85,10.5,18.28,4.82.68,10.96-.5,15.94,0v-26.83c0-.24,1.07-1.1.78-1.94ZM322.93,805.33c-4.34-.25-10.66.77-14.57-1.37-5.78-3.16-3.85-19.62,1.74-19.62h12.83v20.99Z"/>
    </g>
    <path class="cls-24" d="M389.28,624.67c-4.46-6.5,4.96-23.9-8.42-25.44-3.46-.4-14.4-.69-12.82,4.66,7.51-1.47,17.91-4.7,16.33,7.01-9.17.6-20.65-.24-17.73,12.67,1.17,5.18,7.36,5.62,11.69,5.01,1.97-.28,4.8-1.93,5.78-1.98,1.37-.08,4.59,3.47,7.25,2.18.96-3.14-1.45-3.19-2.08-4.11ZM384.38,622.18c-.62,3.21-14.44,6.93-14.06-2.32.27-6.58,9.31-5.69,14.05-5.86-.33,2.52.46,5.82,0,8.18Z"/>
    <g>
      <path class="cls-22" d="M271.99,593.01h-18.28v14.78h16.33v3.89h-16.33v16.33h-4.66v-38.88c3.07.66,23.27-.87,24.11,0,.43.45-.18,3.89-1.16,3.89Z"/>
      <path class="cls-1" d="M312.04,608.18v19.83h-3.89v-28.77h3.9s.39,3.9.39,3.9c3.32-1.7,6.5-4.15,10.49-3.9,3.02,5.99-10.89,5.25-10.89,8.94Z"/>
      <path class="cls-17" d="M301.18,611.26c-.76-9.94-6.92-13.6-16.56-11.84-11.16,2.03-11.18,26.24-.6,29,13.24,3.45,18.06-5.38,17.16-17.17ZM293.66,624.01c-13.89,8.87-17.79-19.4-6.7-21.51,12.23-2.32,12.8,17.62,6.7,21.51Z"/>
    </g>
  </g>
</svg>